<svg xmlns="http://www.w3.org/2000/svg" xmlns:xlink="http://www.w3.org/1999/xlink" width="500" zoomAndPan="magnify" viewBox="0 0 375 374.999991" height="500" preserveAspectRatio="xMidYMid meet" version="1.0"><defs><clipPath id="9d238ef689"><path d="M 7.085938 75 L 361 75 L 361 209 L 7.085938 209 Z M 7.085938 75 " clip-rule="nonzero"/></clipPath><clipPath id="3bdd1a5306"><path d="M 15 55.132812 L 353 55.132812 L 353 169 L 15 169 Z M 15 55.132812 " clip-rule="nonzero"/></clipPath><clipPath id="39015801ee"><path d="M 310 151 L 370.835938 151 L 370.835938 211.132812 L 310 211.132812 Z M 310 151 " clip-rule="nonzero"/></clipPath></defs><rect x="-37.5" width="450" fill="#ffffff" y="-37.499999" height="449.999989" fill-opacity="1"/><rect x="-37.5" width="450" fill="#ffffff" y="-37.499999" height="449.999989" fill-opacity="1"/><g clip-path="url(#9d238ef689)"><path fill="#f4f3f4" d="M 308.480469 208.964844 L 59.554688 208.964844 C 57.839844 208.964844 56.132812 208.878906 54.425781 208.710938 C 52.722656 208.542969 51.027344 208.292969 49.347656 207.957031 C 47.667969 207.625 46.007812 207.207031 44.367188 206.710938 C 42.726562 206.214844 41.117188 205.636719 39.535156 204.980469 C 37.949219 204.328125 36.402344 203.59375 34.890625 202.785156 C 33.378906 201.980469 31.914062 201.101562 30.488281 200.148438 C 29.0625 199.195312 27.6875 198.175781 26.363281 197.089844 C 25.039062 196.003906 23.769531 194.855469 22.558594 193.640625 C 21.34375 192.429688 20.195312 191.164062 19.109375 189.839844 C 18.019531 188.515625 17 187.140625 16.046875 185.714844 C 15.09375 184.289062 14.214844 182.824219 13.40625 181.3125 C 12.597656 179.800781 11.867188 178.253906 11.207031 176.671875 C 10.550781 175.085938 9.976562 173.476562 9.476562 171.835938 C 8.976562 170.195312 8.5625 168.535156 8.226562 166.855469 C 7.890625 165.175781 7.636719 163.480469 7.46875 161.777344 C 7.300781 160.070312 7.214844 158.359375 7.214844 156.644531 L 7.214844 127.917969 C 7.214844 126.207031 7.296875 124.496094 7.464844 122.789062 C 7.632812 121.082031 7.886719 119.390625 8.21875 117.707031 C 8.554688 116.027344 8.96875 114.367188 9.46875 112.726562 C 9.964844 111.085938 10.542969 109.472656 11.199219 107.890625 C 11.855469 106.304688 12.585938 104.757812 13.394531 103.246094 C 14.203125 101.734375 15.082031 100.265625 16.035156 98.84375 C 16.988281 97.417969 18.007812 96.042969 19.097656 94.71875 C 20.183594 93.390625 21.335938 92.125 22.546875 90.914062 C 23.757812 89.699219 25.027344 88.550781 26.351562 87.464844 C 27.675781 86.378906 29.054688 85.359375 30.476562 84.40625 C 31.902344 83.453125 33.371094 82.574219 34.882812 81.769531 C 36.394531 80.960938 37.945312 80.230469 39.527344 79.574219 C 41.109375 78.917969 42.722656 78.34375 44.363281 77.847656 C 46.003906 77.351562 47.664062 76.933594 49.34375 76.601562 C 51.027344 76.269531 52.71875 76.019531 54.425781 75.851562 C 56.132812 75.683594 57.839844 75.601562 59.554688 75.601562 L 308.480469 75.601562 C 310.191406 75.601562 311.902344 75.683594 313.609375 75.851562 C 315.3125 76.019531 317.007812 76.269531 318.6875 76.601562 C 320.371094 76.933594 322.03125 77.351562 323.671875 77.847656 C 325.3125 78.34375 326.921875 78.917969 328.507812 79.574219 C 330.089844 80.230469 331.636719 80.960938 333.148438 81.769531 C 334.660156 82.574219 336.128906 83.453125 337.554688 84.40625 C 338.980469 85.359375 340.355469 86.378906 341.679688 87.464844 C 343.007812 88.550781 344.273438 89.699219 345.488281 90.914062 C 346.699219 92.125 347.851562 93.390625 348.9375 94.71875 C 350.023438 96.042969 351.046875 97.417969 351.996094 98.84375 C 352.949219 100.265625 353.832031 101.734375 354.640625 103.246094 C 355.445312 104.757812 356.179688 106.304688 356.835938 107.890625 C 357.492188 109.472656 358.066406 111.085938 358.566406 112.726562 C 359.0625 114.367188 359.480469 116.027344 359.8125 117.707031 C 360.148438 119.390625 360.398438 121.082031 360.566406 122.789062 C 360.734375 124.496094 360.820312 126.207031 360.820312 127.917969 L 360.820312 156.644531 C 360.820312 158.359375 360.734375 160.070312 360.566406 161.777344 C 360.394531 163.480469 360.144531 165.175781 359.808594 166.855469 C 359.472656 168.535156 359.054688 170.195312 358.558594 171.835938 C 358.058594 173.476562 357.480469 175.085938 356.824219 176.671875 C 356.167969 178.253906 355.4375 179.800781 354.628906 181.3125 C 353.820312 182.824219 352.9375 184.289062 351.984375 185.714844 C 351.035156 187.140625 350.011719 188.515625 348.925781 189.839844 C 347.839844 191.164062 346.6875 192.429688 345.476562 193.640625 C 344.265625 194.855469 342.996094 196.003906 341.671875 197.089844 C 340.347656 198.175781 338.972656 199.195312 337.546875 200.148438 C 336.121094 201.101562 334.652344 201.980469 333.140625 202.785156 C 331.628906 203.59375 330.082031 204.328125 328.5 204.980469 C 326.917969 205.636719 325.304688 206.214844 323.667969 206.710938 C 322.027344 207.207031 320.367188 207.625 318.6875 207.957031 C 317.003906 208.292969 315.3125 208.542969 313.605469 208.710938 C 311.902344 208.878906 310.191406 208.964844 308.480469 208.964844 Z M 308.480469 208.964844 " fill-opacity="1" fill-rule="nonzero"/></g><path fill="#17499a" d="M 301.441406 194.582031 L 66.59375 194.582031 C 64.917969 194.582031 63.246094 194.5 61.578125 194.335938 C 59.914062 194.171875 58.257812 193.925781 56.617188 193.597656 C 54.972656 193.273438 53.351562 192.867188 51.746094 192.378906 C 50.144531 191.894531 48.570312 191.328125 47.023438 190.6875 C 45.472656 190.046875 43.960938 189.332031 42.484375 188.542969 C 41.007812 187.753906 39.574219 186.894531 38.179688 185.964844 C 36.785156 185.035156 35.441406 184.039062 34.148438 182.976562 C 32.851562 181.914062 31.613281 180.789062 30.429688 179.605469 C 29.242188 178.421875 28.121094 177.183594 27.058594 175.886719 C 25.992188 174.59375 24.996094 173.25 24.066406 171.855469 C 23.132812 170.464844 22.273438 169.03125 21.484375 167.550781 C 20.691406 166.074219 19.976562 164.5625 19.335938 163.015625 C 18.695312 161.46875 18.128906 159.894531 17.640625 158.289062 C 17.15625 156.6875 16.746094 155.066406 16.417969 153.421875 C 16.089844 151.777344 15.84375 150.125 15.679688 148.457031 C 15.515625 146.789062 15.429688 145.117188 15.429688 143.445312 L 15.429688 112.128906 C 15.429688 110.453125 15.511719 108.78125 15.675781 107.113281 C 15.839844 105.445312 16.085938 103.789062 16.414062 102.144531 C 16.738281 100.5 17.148438 98.878906 17.632812 97.273438 C 18.121094 95.671875 18.683594 94.09375 19.324219 92.546875 C 19.964844 90.996094 20.679688 89.484375 21.472656 88.003906 C 22.261719 86.527344 23.121094 85.089844 24.050781 83.699219 C 24.984375 82.304688 25.980469 80.960938 27.042969 79.664062 C 28.105469 78.367188 29.230469 77.128906 30.414062 75.941406 C 31.601562 74.757812 32.839844 73.632812 34.136719 72.570312 C 35.429688 71.507812 36.773438 70.507812 38.167969 69.578125 C 39.5625 68.648438 40.996094 67.785156 42.472656 66.996094 C 43.953125 66.207031 45.464844 65.492188 47.011719 64.847656 C 48.5625 64.207031 50.136719 63.644531 51.742188 63.15625 C 53.34375 62.671875 54.96875 62.265625 56.609375 61.9375 C 58.253906 61.609375 59.910156 61.363281 61.578125 61.199219 C 63.246094 61.035156 64.917969 60.953125 66.59375 60.953125 L 301.441406 60.953125 C 303.117188 60.953125 304.789062 61.035156 306.457031 61.199219 C 308.125 61.363281 309.78125 61.609375 311.421875 61.9375 C 313.066406 62.265625 314.691406 62.671875 316.292969 63.15625 C 317.898438 63.644531 319.472656 64.207031 321.019531 64.847656 C 322.570312 65.492188 324.082031 66.207031 325.558594 66.996094 C 327.039062 67.785156 328.472656 68.648438 329.867188 69.578125 C 331.257812 70.507812 332.605469 71.507812 333.898438 72.570312 C 335.195312 73.632812 336.433594 74.757812 337.617188 75.941406 C 338.804688 77.128906 339.925781 78.367188 340.992188 79.664062 C 342.054688 80.960938 343.050781 82.304688 343.980469 83.699219 C 344.914062 85.089844 345.773438 86.527344 346.5625 88.003906 C 347.351562 89.484375 348.066406 90.996094 348.710938 92.546875 C 349.351562 94.09375 349.914062 95.671875 350.402344 97.273438 C 350.886719 98.878906 351.292969 100.5 351.621094 102.144531 C 351.949219 103.789062 352.191406 105.445312 352.359375 107.113281 C 352.523438 108.78125 352.605469 110.453125 352.605469 112.128906 L 352.605469 143.445312 C 352.601562 145.117188 352.519531 146.789062 352.355469 148.457031 C 352.1875 150.125 351.941406 151.777344 351.613281 153.421875 C 351.285156 155.066406 350.878906 156.6875 350.390625 158.289062 C 349.90625 159.894531 349.339844 161.46875 348.699219 163.015625 C 348.058594 164.5625 347.339844 166.074219 346.550781 167.550781 C 345.761719 169.03125 344.898438 170.464844 343.96875 171.855469 C 343.039062 173.25 342.039062 174.59375 340.976562 175.886719 C 339.914062 177.183594 338.789062 178.421875 337.605469 179.605469 C 336.421875 180.789062 335.179688 181.914062 333.886719 182.976562 C 332.589844 184.039062 331.246094 185.035156 329.855469 185.964844 C 328.460938 186.894531 327.027344 187.753906 325.550781 188.542969 C 324.070312 189.332031 322.558594 190.046875 321.011719 190.6875 C 319.464844 191.328125 317.890625 191.894531 316.285156 192.378906 C 314.683594 192.867188 313.0625 193.273438 311.417969 193.597656 C 309.777344 193.925781 308.121094 194.171875 306.453125 194.335938 C 304.789062 194.5 303.117188 194.582031 301.441406 194.582031 Z M 301.441406 194.582031 " fill-opacity="1" fill-rule="nonzero"/><g clip-path="url(#3bdd1a5306)"><path fill="#3967b0" d="M 305.398438 168.9375 L 62.636719 168.9375 C 61.089844 168.9375 59.550781 168.859375 58.011719 168.710938 C 56.472656 168.558594 54.945312 168.332031 53.429688 168.03125 C 51.914062 167.726562 50.417969 167.351562 48.941406 166.90625 C 47.460938 166.457031 46.007812 165.9375 44.578125 165.34375 C 43.152344 164.753906 41.757812 164.09375 40.394531 163.367188 C 39.03125 162.636719 37.707031 161.84375 36.421875 160.984375 C 35.136719 160.128906 33.894531 159.207031 32.703125 158.230469 C 31.507812 157.25 30.363281 156.210938 29.269531 155.121094 C 28.175781 154.027344 27.140625 152.882812 26.160156 151.6875 C 25.179688 150.496094 24.257812 149.253906 23.398438 147.96875 C 22.539062 146.6875 21.746094 145.363281 21.015625 144 C 20.285156 142.636719 19.625 141.242188 19.035156 139.8125 C 18.441406 138.386719 17.921875 136.933594 17.472656 135.453125 C 17.023438 133.976562 16.644531 132.476562 16.34375 130.960938 C 16.039062 129.445312 15.8125 127.917969 15.660156 126.382812 C 15.507812 124.84375 15.429688 123.300781 15.429688 121.753906 L 15.429688 102.425781 C 15.429688 100.878906 15.503906 99.335938 15.65625 97.796875 C 15.808594 96.257812 16.035156 94.730469 16.335938 93.214844 C 16.636719 91.699219 17.015625 90.199219 17.460938 88.71875 C 17.910156 87.238281 18.429688 85.785156 19.023438 84.355469 C 19.613281 82.929688 20.273438 81.53125 21.003906 80.167969 C 21.734375 78.804688 22.527344 77.480469 23.386719 76.195312 C 24.246094 74.90625 25.164062 73.667969 26.144531 72.472656 C 27.125 71.277344 28.164062 70.132812 29.257812 69.039062 C 30.347656 67.945312 31.492188 66.90625 32.6875 65.925781 C 33.882812 64.945312 35.125 64.023438 36.410156 63.167969 C 37.695312 62.308594 39.019531 61.511719 40.382812 60.785156 C 41.746094 60.054688 43.140625 59.394531 44.570312 58.800781 C 46 58.210938 47.453125 57.691406 48.933594 57.242188 C 50.414062 56.792969 51.910156 56.417969 53.425781 56.117188 C 54.941406 55.8125 56.46875 55.585938 58.007812 55.4375 C 59.546875 55.285156 61.089844 55.207031 62.636719 55.207031 L 305.398438 55.207031 C 306.945312 55.207031 308.488281 55.285156 310.023438 55.4375 C 311.5625 55.585938 313.089844 55.8125 314.609375 56.117188 C 316.125 56.417969 317.621094 56.792969 319.101562 57.242188 C 320.582031 57.691406 322.035156 58.210938 323.464844 58.800781 C 324.890625 59.394531 326.289062 60.054688 327.652344 60.785156 C 329.015625 61.511719 330.339844 62.308594 331.625 63.167969 C 332.910156 64.023438 334.148438 64.945312 335.34375 65.925781 C 336.539062 66.90625 337.683594 67.945312 338.777344 69.039062 C 339.871094 70.132812 340.90625 71.277344 341.890625 72.472656 C 342.871094 73.667969 343.789062 74.90625 344.648438 76.195312 C 345.507812 77.480469 346.300781 78.804688 347.03125 80.167969 C 347.757812 81.53125 348.417969 82.929688 349.011719 84.355469 C 349.601562 85.785156 350.121094 87.238281 350.570312 88.71875 C 351.019531 90.199219 351.394531 91.699219 351.695312 93.214844 C 352 94.730469 352.226562 96.257812 352.375 97.796875 C 352.527344 99.335938 352.605469 100.878906 352.605469 102.425781 L 352.605469 121.753906 C 352.601562 123.300781 352.527344 124.84375 352.375 126.382812 C 352.21875 127.917969 351.992188 129.445312 351.691406 130.960938 C 351.386719 132.476562 351.011719 133.976562 350.5625 135.453125 C 350.113281 136.933594 349.59375 138.386719 349 139.8125 C 348.40625 141.242188 347.746094 142.636719 347.019531 144 C 346.289062 145.363281 345.496094 146.6875 344.636719 147.96875 C 343.777344 149.253906 342.855469 150.496094 341.875 151.6875 C 340.894531 152.882812 339.855469 154.027344 338.765625 155.121094 C 337.671875 156.210938 336.527344 157.25 335.332031 158.230469 C 334.136719 159.207031 332.898438 160.128906 331.613281 160.984375 C 330.328125 161.84375 329.003906 162.636719 327.640625 163.367188 C 326.277344 164.09375 324.882812 164.753906 323.453125 165.34375 C 322.027344 165.9375 320.574219 166.457031 319.09375 166.90625 C 317.617188 167.351562 316.117188 167.726562 314.601562 168.03125 C 313.085938 168.332031 311.558594 168.558594 310.023438 168.710938 C 308.484375 168.859375 306.941406 168.9375 305.398438 168.9375 Z M 305.398438 168.9375 " fill-opacity="1" fill-rule="nonzero"/></g><g clip-path="url(#39015801ee)"><path fill="#1e1e1e" d="M 366.03125 166.917969 L 359.679688 173.273438 C 359.484375 173.480469 359.332031 173.71875 359.226562 173.984375 C 359.121094 174.25 359.066406 174.527344 359.066406 174.816406 C 359.066406 175.101562 359.121094 175.378906 359.226562 175.644531 C 359.332031 175.910156 359.484375 176.148438 359.679688 176.355469 L 370.0625 186.78125 C 370.269531 186.980469 370.425781 187.214844 370.535156 187.476562 C 370.648438 187.742188 370.703125 188.015625 370.703125 188.304688 C 370.703125 188.589844 370.648438 188.863281 370.535156 189.128906 C 370.425781 189.390625 370.269531 189.625 370.0625 189.824219 L 349.484375 210.410156 C 349.28125 210.613281 349.046875 210.773438 348.777344 210.886719 C 348.511719 210.996094 348.234375 211.050781 347.945312 211.050781 C 347.65625 211.050781 347.375 210.996094 347.109375 210.886719 C 346.84375 210.773438 346.605469 210.613281 346.402344 210.410156 L 335.21875 199.300781 C 335.015625 199.09375 334.78125 198.933594 334.515625 198.824219 C 334.246094 198.710938 333.96875 198.65625 333.679688 198.65625 C 333.390625 198.65625 333.113281 198.710938 332.84375 198.824219 C 332.578125 198.933594 332.34375 199.09375 332.140625 199.300781 L 325.671875 205.804688 C 325.40625 206.089844 325.085938 206.28125 324.710938 206.390625 C 324.335938 206.496094 323.960938 206.5 323.585938 206.402344 C 323.207031 206.300781 322.882812 206.113281 322.609375 205.835938 C 322.335938 205.558594 322.152344 205.230469 322.058594 204.855469 L 310.648438 154.171875 C 310.609375 153.988281 310.59375 153.804688 310.601562 153.617188 C 310.605469 153.429688 310.636719 153.246094 310.691406 153.066406 C 310.742188 152.890625 310.816406 152.71875 310.914062 152.558594 C 311.007812 152.398438 311.125 152.25 311.253906 152.117188 C 311.386719 151.984375 311.535156 151.871094 311.695312 151.777344 C 311.855469 151.679688 312.027344 151.605469 312.207031 151.554688 C 312.386719 151.5 312.566406 151.46875 312.753906 151.460938 C 312.941406 151.453125 313.128906 151.472656 313.308594 151.511719 L 363.75 162.011719 C 365.5 162.429688 367.285156 165.703125 366.03125 166.917969 Z M 366.03125 166.917969 " fill-opacity="1" fill-rule="nonzero"/></g><path fill="#ffffff" d="M 360.859375 168.0625 L 355.378906 173.539062 C 355.199219 173.71875 355.0625 173.925781 354.964844 174.160156 C 354.867188 174.394531 354.816406 174.636719 354.816406 174.890625 C 354.816406 175.144531 354.867188 175.386719 354.964844 175.621094 C 355.0625 175.855469 355.199219 176.0625 355.378906 176.242188 L 365.957031 186.78125 C 366.136719 186.960938 366.273438 187.167969 366.371094 187.398438 C 366.46875 187.632812 366.519531 187.878906 366.519531 188.132812 C 366.519531 188.386719 366.46875 188.628906 366.371094 188.863281 C 366.273438 189.097656 366.136719 189.304688 365.957031 189.484375 L 348.191406 207.25 C 348.011719 207.429688 347.804688 207.570312 347.574219 207.667969 C 347.339844 207.765625 347.09375 207.8125 346.839844 207.8125 C 346.585938 207.8125 346.34375 207.765625 346.109375 207.667969 C 345.875 207.570312 345.667969 207.429688 345.492188 207.25 L 334.917969 196.671875 C 334.734375 196.5 334.527344 196.363281 334.292969 196.269531 C 334.058594 196.171875 333.816406 196.125 333.566406 196.125 C 333.3125 196.125 333.070312 196.171875 332.835938 196.269531 C 332.605469 196.363281 332.394531 196.5 332.214844 196.671875 L 326.699219 202.191406 C 326.457031 202.433594 326.167969 202.597656 325.832031 202.6875 C 325.5 202.773438 325.164062 202.769531 324.832031 202.671875 C 324.503906 202.578125 324.21875 202.40625 323.980469 202.15625 C 323.742188 201.90625 323.582031 201.613281 323.503906 201.277344 L 312.855469 156.761719 C 312.820312 156.601562 312.804688 156.441406 312.808594 156.28125 C 312.8125 156.121094 312.839844 155.960938 312.882812 155.804688 C 312.925781 155.648438 312.992188 155.503906 313.074219 155.363281 C 313.152344 155.222656 313.25 155.09375 313.363281 154.980469 C 313.476562 154.863281 313.605469 154.765625 313.742188 154.679688 C 313.878906 154.597656 314.027344 154.53125 314.183594 154.484375 C 314.335938 154.4375 314.496094 154.410156 314.65625 154.402344 C 314.816406 154.394531 314.976562 154.40625 315.136719 154.441406 L 359.945312 164.828125 C 360.289062 164.902344 360.589844 165.058594 360.847656 165.300781 C 361.101562 165.539062 361.277344 165.832031 361.375 166.167969 C 361.46875 166.507812 361.472656 166.847656 361.378906 167.1875 C 361.285156 167.527344 361.113281 167.816406 360.859375 168.0625 Z M 360.859375 168.0625 " fill-opacity="1" fill-rule="nonzero"/><path fill="#2d2828" d="M 306.652344 148.730469 C 306.488281 148.90625 306.285156 148.996094 306.042969 148.996094 C 305.804688 148.996094 305.601562 148.90625 305.4375 148.730469 L 295.851562 139.183594 C 295.675781 139.015625 295.585938 138.8125 295.585938 138.574219 C 295.585938 138.332031 295.675781 138.128906 295.851562 137.964844 C 295.925781 137.882812 296.015625 137.816406 296.117188 137.773438 C 296.21875 137.726562 296.328125 137.703125 296.441406 137.703125 C 296.550781 137.703125 296.660156 137.726562 296.761719 137.773438 C 296.863281 137.816406 296.953125 137.882812 297.03125 137.964844 L 306.652344 147.589844 C 306.8125 147.746094 306.894531 147.9375 306.894531 148.160156 C 306.894531 148.386719 306.8125 148.574219 306.652344 148.730469 Z M 313.917969 145.765625 L 313.917969 133.511719 C 313.917969 133.289062 313.84375 133.097656 313.6875 132.933594 C 313.53125 132.773438 313.34375 132.6875 313.121094 132.675781 C 312.890625 132.675781 312.699219 132.757812 312.542969 132.921875 C 312.382812 133.089844 312.308594 133.285156 312.320312 133.511719 L 312.320312 145.6875 C 312.316406 146.050781 312.480469 146.296875 312.8125 146.4375 C 313.144531 146.578125 313.4375 146.515625 313.691406 146.257812 C 313.8125 146.128906 313.890625 145.976562 313.917969 145.800781 Z M 305.09375 154.589844 C 305.09375 154.371094 305.015625 154.183594 304.859375 154.027344 C 304.703125 153.871094 304.515625 153.792969 304.296875 153.792969 L 292.691406 153.792969 C 292.472656 153.792969 292.285156 153.871094 292.128906 154.027344 C 291.972656 154.183594 291.894531 154.371094 291.894531 154.589844 C 291.894531 154.8125 291.972656 155 292.128906 155.15625 C 292.285156 155.3125 292.472656 155.390625 292.691406 155.390625 L 304.296875 155.390625 C 304.515625 155.390625 304.703125 155.3125 304.859375 155.15625 C 305.015625 155 305.09375 154.8125 305.09375 154.589844 Z M 305.09375 154.589844 " fill-opacity="1" fill-rule="nonzero"/><path fill="#ffffff" d="M 101.472656 133.511719 L 101.472656 98.582031 C 101.433594 98.210938 101.4375 97.835938 101.480469 97.460938 C 101.527344 97.089844 101.613281 96.722656 101.738281 96.371094 C 101.863281 96.015625 102.027344 95.679688 102.226562 95.359375 C 102.429688 95.042969 102.660156 94.75 102.929688 94.484375 C 103.195312 94.21875 103.484375 93.984375 103.804688 93.785156 C 104.121094 93.582031 104.457031 93.417969 104.8125 93.292969 C 105.167969 93.167969 105.53125 93.082031 105.90625 93.039062 C 106.277344 92.992188 106.652344 92.988281 107.027344 93.027344 L 120.1875 93.027344 C 130.609375 93.027344 137.265625 98.582031 137.265625 107.753906 C 137.265625 116.921875 130.609375 122.972656 119.847656 122.972656 L 112.238281 122.972656 L 112.238281 133.511719 C 112.238281 133.867188 112.203125 134.21875 112.132812 134.566406 C 112.066406 134.914062 111.960938 135.253906 111.828125 135.582031 C 111.691406 135.90625 111.523438 136.21875 111.328125 136.515625 C 111.128906 136.808594 110.90625 137.082031 110.65625 137.332031 C 110.40625 137.585938 110.132812 137.808594 109.835938 138.003906 C 109.542969 138.203125 109.230469 138.367188 108.902344 138.503906 C 108.574219 138.640625 108.238281 138.742188 107.890625 138.8125 C 107.542969 138.882812 107.191406 138.914062 106.835938 138.914062 C 106.484375 138.910156 106.136719 138.871094 105.789062 138.800781 C 105.445312 138.726562 105.113281 138.621094 104.785156 138.484375 C 104.460938 138.347656 104.15625 138.179688 103.863281 137.980469 C 103.570312 137.78125 103.300781 137.558594 103.050781 137.308594 C 102.804688 137.058594 102.582031 136.789062 102.386719 136.492188 C 102.191406 136.199219 102.027344 135.890625 101.890625 135.566406 C 101.753906 135.242188 101.652344 134.90625 101.582031 134.558594 C 101.511719 134.214844 101.476562 133.863281 101.472656 133.511719 Z M 112.3125 113.613281 L 119.695312 113.613281 C 124.257812 113.613281 126.425781 111.824219 126.425781 107.980469 C 126.425781 104.140625 124.257812 102.425781 119.695312 102.425781 L 112.3125 102.425781 Z M 141.871094 115.515625 C 141.851562 114.726562 141.875 113.9375 141.933594 113.148438 C 141.996094 112.359375 142.09375 111.578125 142.230469 110.796875 C 142.371094 110.019531 142.546875 109.25 142.757812 108.488281 C 142.972656 107.726562 143.222656 106.980469 143.511719 106.242188 C 143.800781 105.507812 144.121094 104.785156 144.480469 104.082031 C 144.839844 103.378906 145.234375 102.691406 145.660156 102.027344 C 146.085938 101.363281 146.542969 100.71875 147.035156 100.097656 C 147.523438 99.476562 148.042969 98.882812 148.589844 98.316406 C 149.140625 97.746094 149.714844 97.207031 150.316406 96.691406 C 150.917969 96.179688 151.546875 95.699219 152.195312 95.25 C 152.84375 94.800781 153.515625 94.382812 154.207031 93.996094 C 154.894531 93.613281 155.605469 93.265625 156.328125 92.949219 C 157.054688 92.636719 157.792969 92.359375 158.546875 92.117188 C 159.300781 91.878906 160.0625 91.671875 160.835938 91.507812 C 161.605469 91.34375 162.386719 91.214844 163.171875 91.125 C 163.957031 91.039062 164.746094 90.988281 165.535156 90.976562 C 166.324219 90.964844 167.113281 90.992188 167.902344 91.0625 C 168.6875 91.128906 169.472656 91.234375 170.25 91.378906 C 171.023438 91.523438 171.792969 91.703125 172.550781 91.925781 C 173.3125 92.144531 174.058594 92.402344 174.792969 92.695312 C 175.523438 92.988281 176.242188 93.320312 176.945312 93.683594 C 177.644531 94.046875 178.324219 94.445312 178.988281 94.878906 C 179.648438 95.3125 180.289062 95.773438 180.90625 96.269531 C 181.519531 96.765625 182.109375 97.289062 182.675781 97.84375 C 183.238281 98.398438 183.773438 98.976562 184.28125 99.582031 C 184.789062 100.191406 185.265625 100.820312 185.707031 101.472656 C 186.152344 102.128906 186.566406 102.800781 186.941406 103.496094 C 187.320312 104.1875 187.664062 104.898438 187.972656 105.628906 C 188.28125 106.355469 188.550781 107.097656 188.785156 107.851562 C 189.019531 108.609375 189.21875 109.371094 189.375 110.144531 C 189.535156 110.921875 189.65625 111.699219 189.738281 112.488281 C 189.820312 113.273438 189.863281 114.0625 189.867188 114.851562 C 189.871094 115.644531 189.839844 116.429688 189.765625 117.21875 C 189.691406 118.003906 189.578125 118.789062 189.429688 119.5625 C 189.277344 120.339844 189.089844 121.105469 188.863281 121.863281 C 188.636719 122.621094 188.371094 123.363281 188.074219 124.097656 C 187.773438 124.828125 187.4375 125.542969 187.066406 126.242188 C 186.695312 126.9375 186.292969 127.617188 185.855469 128.277344 C 185.417969 128.933594 184.949219 129.570312 184.449219 130.179688 C 183.949219 130.792969 183.417969 131.378906 182.859375 131.9375 C 182.300781 132.5 181.71875 133.027344 181.105469 133.53125 C 180.496094 134.03125 179.863281 134.503906 179.207031 134.941406 C 178.550781 135.382812 177.871094 135.789062 177.175781 136.160156 C 176.476562 136.53125 175.765625 136.871094 175.035156 137.171875 C 174.304688 137.472656 173.558594 137.738281 172.804688 137.96875 C 172.046875 138.195312 171.28125 138.386719 170.503906 138.539062 C 169.730469 138.691406 168.949219 138.804688 168.160156 138.882812 C 167.375 138.957031 166.585938 138.992188 165.796875 138.992188 C 165.015625 139.007812 164.238281 138.984375 163.460938 138.921875 C 162.683594 138.859375 161.910156 138.757812 161.144531 138.617188 C 160.375 138.480469 159.617188 138.300781 158.867188 138.085938 C 158.117188 137.871094 157.382812 137.621094 156.65625 137.332031 C 155.933594 137.042969 155.222656 136.71875 154.53125 136.359375 C 153.839844 136 153.167969 135.605469 152.515625 135.179688 C 151.859375 134.753906 151.230469 134.296875 150.621094 133.808594 C 150.015625 133.316406 149.433594 132.800781 148.878906 132.253906 C 148.320312 131.707031 147.792969 131.132812 147.296875 130.53125 C 146.796875 129.933594 146.328125 129.308594 145.894531 128.664062 C 145.457031 128.015625 145.054688 127.351562 144.683594 126.664062 C 144.3125 125.976562 143.976562 125.273438 143.675781 124.554688 C 143.378906 123.832031 143.113281 123.101562 142.886719 122.355469 C 142.660156 121.609375 142.46875 120.851562 142.320312 120.085938 C 142.167969 119.320312 142.054688 118.550781 141.980469 117.773438 C 141.902344 116.996094 141.867188 116.21875 141.871094 115.441406 Z M 179.035156 115.515625 C 178.96875 114.667969 178.820312 113.835938 178.59375 113.015625 C 178.363281 112.195312 178.058594 111.40625 177.679688 110.644531 C 177.296875 109.882812 176.847656 109.167969 176.328125 108.496094 C 175.808594 107.820312 175.230469 107.203125 174.589844 106.644531 C 173.949219 106.082031 173.261719 105.589844 172.527344 105.160156 C 171.792969 104.734375 171.023438 104.382812 170.21875 104.101562 C 169.417969 103.824219 168.59375 103.625 167.753906 103.507812 C 166.910156 103.386719 166.066406 103.351562 165.214844 103.398438 C 164.367188 103.441406 163.53125 103.566406 162.703125 103.773438 C 161.878906 103.980469 161.082031 104.265625 160.3125 104.628906 C 159.542969 104.992188 158.816406 105.421875 158.132812 105.925781 C 157.445312 106.429688 156.8125 106.992188 156.238281 107.617188 C 155.660156 108.242188 155.148438 108.917969 154.703125 109.640625 C 154.257812 110.367188 153.886719 111.125 153.589844 111.921875 C 153.289062 112.71875 153.070312 113.539062 152.929688 114.375 C 152.789062 115.214844 152.734375 116.058594 152.757812 116.910156 C 152.78125 117.761719 152.886719 118.601562 153.070312 119.429688 C 153.257812 120.257812 153.523438 121.0625 153.863281 121.84375 C 154.207031 122.621094 154.621094 123.359375 155.105469 124.058594 C 155.589844 124.757812 156.140625 125.402344 156.75 125.992188 C 157.359375 126.585938 158.023438 127.113281 158.734375 127.578125 C 159.445312 128.042969 160.199219 128.433594 160.984375 128.75 C 161.773438 129.070312 162.585938 129.308594 163.421875 129.46875 C 164.253906 129.628906 165.097656 129.710938 165.949219 129.707031 C 166.402344 129.707031 166.851562 129.679688 167.304688 129.628906 C 167.753906 129.582031 168.199219 129.511719 168.644531 129.414062 C 169.085938 129.320312 169.523438 129.203125 169.953125 129.0625 C 170.386719 128.921875 170.808594 128.761719 171.222656 128.578125 C 171.636719 128.394531 172.039062 128.1875 172.433594 127.964844 C 172.828125 127.738281 173.207031 127.496094 173.574219 127.230469 C 173.945312 126.964844 174.296875 126.683594 174.636719 126.382812 C 174.976562 126.082031 175.296875 125.765625 175.605469 125.429688 C 175.910156 125.097656 176.199219 124.746094 176.46875 124.382812 C 176.738281 124.019531 176.992188 123.644531 177.222656 123.253906 C 177.453125 122.863281 177.664062 122.464844 177.855469 122.054688 C 178.046875 121.640625 178.214844 121.222656 178.363281 120.792969 C 178.507812 120.363281 178.632812 119.929688 178.734375 119.488281 C 178.839844 119.046875 178.917969 118.601562 178.972656 118.152344 C 179.03125 117.703125 179.0625 117.25 179.074219 116.796875 C 179.082031 116.34375 179.070312 115.890625 179.035156 115.441406 Z M 201.855469 137.925781 C 201.480469 137.964844 201.105469 137.960938 200.730469 137.917969 C 200.355469 137.871094 199.988281 137.785156 199.632812 137.660156 C 199.277344 137.53125 198.9375 137.367188 198.621094 137.164062 C 198.300781 136.964844 198.007812 136.726562 197.742188 136.460938 C 197.476562 136.191406 197.242188 135.898438 197.042969 135.574219 C 196.839844 135.253906 196.679688 134.917969 196.554688 134.558594 C 196.429688 134.203125 196.347656 133.835938 196.304688 133.460938 C 196.261719 133.085938 196.261719 132.710938 196.304688 132.332031 L 196.304688 97.441406 C 196.304688 97.085938 196.34375 96.734375 196.414062 96.382812 C 196.484375 96.035156 196.589844 95.695312 196.726562 95.367188 C 196.863281 95.039062 197.03125 94.726562 197.230469 94.429688 C 197.429688 94.132812 197.65625 93.859375 197.90625 93.605469 C 198.160156 93.355469 198.433594 93.128906 198.730469 92.929688 C 199.027344 92.730469 199.339844 92.5625 199.667969 92.425781 C 199.996094 92.289062 200.335938 92.183594 200.683594 92.113281 C 201.035156 92.039062 201.386719 92.003906 201.742188 92 C 202.085938 92.023438 202.421875 92.078125 202.753906 92.164062 C 203.085938 92.246094 203.410156 92.363281 203.71875 92.511719 C 204.03125 92.65625 204.324219 92.832031 204.601562 93.03125 C 204.878906 93.234375 205.136719 93.460938 205.371094 93.710938 C 205.605469 93.960938 205.8125 94.230469 205.996094 94.523438 C 206.179688 94.8125 206.335938 95.117188 206.460938 95.4375 C 206.585938 95.757812 206.683594 96.085938 206.746094 96.421875 C 206.808594 96.757812 206.839844 97.097656 206.839844 97.441406 L 206.839844 128.71875 L 223.84375 128.71875 C 224.144531 128.71875 224.441406 128.746094 224.734375 128.804688 C 225.027344 128.863281 225.3125 128.953125 225.589844 129.066406 C 225.867188 129.179688 226.128906 129.320312 226.378906 129.488281 C 226.628906 129.65625 226.859375 129.84375 227.070312 130.054688 C 227.28125 130.269531 227.472656 130.5 227.636719 130.746094 C 227.804688 130.996094 227.945312 131.261719 228.058594 131.539062 C 228.175781 131.8125 228.261719 132.101562 228.320312 132.394531 C 228.378906 132.6875 228.40625 132.984375 228.40625 133.285156 C 228.40625 133.585938 228.378906 133.882812 228.320312 134.175781 C 228.261719 134.46875 228.175781 134.753906 228.058594 135.03125 C 227.945312 135.308594 227.804688 135.570312 227.636719 135.820312 C 227.472656 136.070312 227.28125 136.300781 227.070312 136.511719 C 226.859375 136.726562 226.628906 136.914062 226.378906 137.082031 C 226.128906 137.246094 225.867188 137.386719 225.589844 137.503906 C 225.3125 137.617188 225.027344 137.703125 224.734375 137.761719 C 224.441406 137.820312 224.144531 137.851562 223.84375 137.851562 Z M 240.3125 137.925781 C 239.9375 137.964844 239.5625 137.960938 239.1875 137.917969 C 238.8125 137.871094 238.445312 137.785156 238.089844 137.660156 C 237.734375 137.53125 237.394531 137.367188 237.078125 137.164062 C 236.757812 136.964844 236.464844 136.726562 236.199219 136.460938 C 235.933594 136.191406 235.699219 135.898438 235.5 135.574219 C 235.296875 135.253906 235.136719 134.917969 235.011719 134.558594 C 234.886719 134.203125 234.804688 133.835938 234.761719 133.460938 C 234.71875 133.085938 234.71875 132.710938 234.761719 132.332031 L 234.761719 97.441406 C 234.730469 97.066406 234.734375 96.691406 234.78125 96.320312 C 234.828125 95.945312 234.914062 95.582031 235.035156 95.226562 C 235.15625 94.867188 235.3125 94.527344 235.507812 94.207031 C 235.699219 93.882812 235.921875 93.582031 236.175781 93.304688 C 236.433594 93.027344 236.710938 92.78125 237.019531 92.5625 C 237.324219 92.34375 237.648438 92.15625 237.996094 92.003906 C 238.339844 91.855469 238.695312 91.738281 239.0625 91.664062 C 239.433594 91.585938 239.804688 91.546875 240.179688 91.546875 C 240.558594 91.546875 240.929688 91.585938 241.296875 91.664062 C 241.667969 91.738281 242.023438 91.855469 242.367188 92.003906 C 242.710938 92.15625 243.035156 92.34375 243.34375 92.5625 C 243.648438 92.78125 243.929688 93.027344 244.183594 93.304688 C 244.4375 93.582031 244.664062 93.882812 244.855469 94.207031 C 245.046875 94.527344 245.203125 94.867188 245.328125 95.226562 C 245.449219 95.582031 245.53125 95.945312 245.578125 96.320312 C 245.625 96.691406 245.632812 97.066406 245.601562 97.441406 L 245.601562 128.71875 L 262.566406 128.71875 C 262.867188 128.71875 263.164062 128.746094 263.457031 128.804688 C 263.75 128.863281 264.035156 128.953125 264.3125 129.066406 C 264.589844 129.179688 264.851562 129.320312 265.101562 129.488281 C 265.351562 129.65625 265.582031 129.84375 265.792969 130.054688 C 266.007812 130.269531 266.195312 130.5 266.363281 130.746094 C 266.527344 130.996094 266.667969 131.261719 266.785156 131.539062 C 266.898438 131.8125 266.984375 132.101562 267.042969 132.394531 C 267.101562 132.6875 267.132812 132.984375 267.132812 133.285156 C 267.132812 133.585938 267.101562 133.882812 267.042969 134.175781 C 266.984375 134.46875 266.898438 134.753906 266.785156 135.03125 C 266.667969 135.308594 266.527344 135.570312 266.363281 135.820312 C 266.195312 136.070312 266.007812 136.300781 265.792969 136.511719 C 265.582031 136.726562 265.351562 136.914062 265.101562 137.082031 C 264.851562 137.246094 264.589844 137.386719 264.3125 137.503906 C 264.035156 137.617188 263.75 137.703125 263.457031 137.761719 C 263.164062 137.820312 262.867188 137.851562 262.566406 137.851562 Z M 240.3125 137.925781 " fill-opacity="1" fill-rule="nonzero"/></svg>