<?xml version="1.0" encoding="utf-8"?>
<!-- Generator: Adobe Illustrator 27.0.0, SVG Export Plug-In . SVG Version: 6.00 Build 0)  -->
<svg version="1.1" id="Layer_1" xmlns="http://www.w3.org/2000/svg" xmlns:xlink="http://www.w3.org/1999/xlink" x="0px" y="0px"
	 viewBox="0 0 500 500" style="enable-background:new 0 0 500 500;" xml:space="preserve">
<style type="text/css">
	.st0{fill-rule:evenodd;clip-rule:evenodd;fill:#009688;}
</style>
<g>
	<path class="st0" d="M318.5,42.9c0.9,0,1.9,0.1,2.8,0.1c0.9,0.1,1.8,0.2,2.8,0.4c0.9,0.2,1.8,0.4,2.7,0.7c0.9,0.3,1.8,0.6,2.6,0.9
		s1.7,0.8,2.5,1.2c0.8,0.4,1.6,0.9,2.4,1.4c0.8,0.5,1.5,1.1,2.2,1.7c0.7,0.6,1.4,1.2,2.1,1.9c0.7,0.7,1.3,1.3,1.9,2.1
		c0.6,0.7,1.1,1.5,1.7,2.2c0.5,0.8,1,1.6,1.4,2.4c0.4,0.8,0.8,1.7,1.2,2.5c0.4,0.9,0.7,1.7,0.9,2.6c0.3,0.9,0.5,1.8,0.7,2.7
		c0.2,0.9,0.3,1.8,0.4,2.8c0.1,0.9,0.1,1.9,0.1,2.8V99H7.2V71.4c0-0.9,0-1.9,0.1-2.8c0.1-0.9,0.2-1.8,0.4-2.8
		c0.2-0.9,0.4-1.8,0.7-2.7c0.3-0.9,0.6-1.8,0.9-2.6c0.4-0.9,0.8-1.7,1.2-2.5c0.4-0.8,0.9-1.6,1.4-2.4c0.5-0.8,1.1-1.5,1.7-2.2
		c0.6-0.7,1.2-1.4,1.9-2.1c0.7-0.7,1.3-1.3,2.1-1.9c0.7-0.6,1.5-1.1,2.2-1.7c0.8-0.5,1.6-1,2.4-1.4c0.8-0.4,1.7-0.8,2.5-1.2
		c0.9-0.4,1.7-0.7,2.6-0.9c0.9-0.3,1.8-0.5,2.7-0.7c0.9-0.2,1.8-0.3,2.8-0.4c0.9-0.1,1.9-0.1,2.8-0.1h15.2v22.2c0,0.8,0,1.6,0.1,2.3
		s0.2,1.6,0.3,2.3c0.2,0.8,0.3,1.5,0.6,2.3c0.2,0.8,0.5,1.5,0.8,2.2c0.3,0.7,0.6,1.4,1,2.1c0.4,0.7,0.8,1.4,1.2,2
		c0.4,0.7,0.9,1.3,1.4,1.9c0.5,0.6,1,1.2,1.6,1.7c0.6,0.6,1.1,1.1,1.7,1.6c0.6,0.5,1.2,1,1.9,1.4c0.7,0.4,1.3,0.8,2,1.2
		c0.7,0.4,1.4,0.7,2.1,1c0.7,0.3,1.5,0.6,2.2,0.8c0.8,0.2,1.5,0.4,2.3,0.6c0.8,0.2,1.5,0.3,2.3,0.3s1.6,0.1,2.3,0.1h16.6
		c0.8,0,1.6,0,2.3-0.1s1.6-0.2,2.3-0.3c0.8-0.2,1.5-0.3,2.3-0.6c0.8-0.2,1.5-0.5,2.2-0.8c0.7-0.3,1.4-0.6,2.1-1s1.4-0.8,2-1.2
		s1.3-0.9,1.9-1.4c0.6-0.5,1.2-1,1.7-1.6c0.6-0.6,1.1-1.1,1.6-1.7c0.5-0.6,1-1.2,1.4-1.9c0.4-0.7,0.8-1.3,1.2-2
		c0.4-0.7,0.7-1.4,1-2.1c0.3-0.7,0.6-1.5,0.8-2.2s0.4-1.5,0.6-2.3c0.2-0.8,0.3-1.5,0.3-2.3c0.1-0.8,0.1-1.6,0.1-2.3V42.9h29.4v22.2
		c0,0.8,0,1.6,0.1,2.3c0.1,0.8,0.2,1.6,0.3,2.3c0.2,0.8,0.3,1.5,0.6,2.3c0.2,0.8,0.5,1.5,0.8,2.2c0.3,0.7,0.6,1.4,1,2.1
		c0.4,0.7,0.8,1.4,1.2,2c0.4,0.7,0.9,1.3,1.4,1.9c0.5,0.6,1,1.2,1.6,1.7c0.6,0.6,1.1,1.1,1.7,1.6c0.6,0.5,1.2,1,1.9,1.4
		c0.7,0.4,1.3,0.8,2,1.2c0.7,0.4,1.4,0.7,2.1,1c0.7,0.3,1.5,0.6,2.2,0.8c0.8,0.2,1.5,0.4,2.3,0.6c0.8,0.2,1.5,0.3,2.3,0.3
		s1.6,0.1,2.3,0.1h16.6c0.8,0,1.6,0,2.3-0.1s1.6-0.2,2.3-0.3c0.8-0.2,1.5-0.3,2.3-0.6c0.8-0.2,1.5-0.5,2.2-0.8
		c0.7-0.3,1.4-0.6,2.1-1s1.4-0.8,2-1.2s1.3-0.9,1.9-1.4c0.6-0.5,1.2-1,1.7-1.6c0.6-0.6,1.1-1.1,1.6-1.7c0.5-0.6,1-1.2,1.4-1.9
		c0.4-0.7,0.8-1.3,1.2-2c0.4-0.7,0.7-1.4,1-2.1c0.3-0.7,0.6-1.5,0.8-2.2s0.4-1.5,0.6-2.3c0.2-0.8,0.3-1.5,0.3-2.3s0.1-1.6,0.1-2.3
		V42.9h29.4v22.2c0,0.8,0,1.6,0.1,2.3s0.2,1.6,0.3,2.3c0.2,0.8,0.3,1.5,0.6,2.3c0.2,0.8,0.5,1.5,0.8,2.2c0.3,0.7,0.6,1.4,1,2.1
		c0.4,0.7,0.8,1.4,1.2,2c0.4,0.7,0.9,1.3,1.4,1.9c0.5,0.6,1,1.2,1.6,1.7c0.6,0.6,1.1,1.1,1.7,1.6c0.6,0.5,1.2,1,1.9,1.4
		c0.7,0.4,1.3,0.8,2,1.2c0.7,0.4,1.4,0.7,2.1,1c0.7,0.3,1.5,0.6,2.2,0.8c0.8,0.2,1.5,0.4,2.3,0.6c0.8,0.2,1.5,0.3,2.3,0.3
		s1.6,0.1,2.3,0.1h16.6c0.8,0,1.6,0,2.3-0.1s1.6-0.2,2.3-0.3c0.8-0.2,1.5-0.3,2.3-0.6c0.8-0.2,1.5-0.5,2.2-0.8
		c0.7-0.3,1.4-0.6,2.1-1c0.7-0.4,1.4-0.8,2-1.2c0.7-0.4,1.3-0.9,1.9-1.4c0.6-0.5,1.2-1,1.7-1.6c0.6-0.6,1.1-1.1,1.6-1.7
		c0.5-0.6,1-1.2,1.4-1.9c0.4-0.7,0.8-1.3,1.2-2c0.4-0.7,0.7-1.4,1-2.1c0.3-0.7,0.6-1.5,0.8-2.2c0.2-0.8,0.4-1.5,0.6-2.3
		c0.2-0.8,0.3-1.5,0.3-2.3s0.1-1.6,0.1-2.3V42.9H318.5z M112.8,356.6c0.4,1.6,0.9,3.1,1.5,4.7c0.6,1.5,1.2,3,2,4.5
		c0.7,1.5,1.5,2.9,2.4,4.3c0.9,1.4,1.8,2.7,2.8,4c1,1.3,2.1,2.5,3.2,3.7c1.1,1.2,2.3,2.3,3.5,3.4c1.2,1.1,2.5,2.1,3.8,3
		c1.3,0.9,2.7,1.8,4.1,2.7c1.4,0.8,2.9,1.6,4.4,2.2c1.5,0.7,3,1.3,4.6,1.8c1.5,0.5,3.1,1,4.7,1.3c1.6,0.4,3.2,0.7,4.8,0.9
		c1.6,0.2,3.2,0.3,4.9,0.4c1.6,0.1,3.3,0,4.9-0.1c1.6-0.1,3.3-0.3,4.9-0.6c1.6-0.3,3.2-0.6,4.8-1l40.8-10.9c0.4-0.1,0.7-0.3,1-0.5
		c0.3-0.2,0.6-0.5,0.8-0.9c0.2-0.3,0.3-0.7,0.4-1.1c0.1-0.4,0-0.8-0.1-1.2l-24.3-90.7c-0.1-0.4-0.3-0.7-0.5-1
		c-0.2-0.3-0.5-0.6-0.9-0.8c-0.3-0.2-0.7-0.3-1.1-0.4c-0.4-0.1-0.8,0-1.2,0.1l-40.8,10.9c-1.6,0.4-3.1,0.9-4.7,1.5
		c-1.5,0.6-3,1.2-4.5,2c-1.5,0.7-2.9,1.5-4.3,2.4c-1.4,0.9-2.7,1.8-4,2.8c-1.3,1-2.5,2.1-3.7,3.2c-1.2,1.1-2.3,2.3-3.4,3.5
		c-1.1,1.2-2.1,2.5-3,3.8c-0.9,1.3-1.8,2.7-2.7,4.1c-0.8,1.4-1.6,2.9-2.2,4.4c-0.7,1.5-1.3,3-1.8,4.6c-0.5,1.5-1,3.1-1.3,4.7
		c-0.4,1.6-0.7,3.2-0.9,4.8c-0.2,1.6-0.3,3.2-0.4,4.9c-0.1,1.6,0,3.3,0.1,4.9c0.1,1.6,0.3,3.2,0.6,4.9
		C112,353.4,112.4,355,112.8,356.6z M394.9,404c-0.7,0.2-1.5,0.3-2.2,0.5c-0.8,0.1-1.5,0.2-2.3,0.3s-1.5,0.1-2.3,0
		c-0.8,0-1.5-0.1-2.3-0.2c-0.8-0.1-1.5-0.2-2.2-0.4c-0.7-0.2-1.5-0.4-2.2-0.6c-0.7-0.2-1.4-0.5-2.1-0.8c-0.7-0.3-1.4-0.7-2-1
		c-0.7-0.4-1.3-0.8-1.9-1.2c-0.6-0.4-1.2-0.9-1.8-1.4c-0.6-0.5-1.1-1-1.6-1.6c-0.5-0.6-1-1.1-1.5-1.7c-0.5-0.6-0.9-1.2-1.3-1.9
		c-0.4-0.6-0.8-1.3-1.1-2c-0.3-0.7-0.6-1.4-0.9-2.1c-0.3-0.7-0.5-1.4-0.7-2.2L316.9,203c-0.2-0.7-0.4-1.5-0.5-2.2
		c-0.1-0.8-0.2-1.5-0.3-2.3c-0.1-0.8-0.1-1.5,0-2.3c0-0.8,0.1-1.5,0.2-2.3c0.1-0.8,0.2-1.5,0.4-2.3c0.2-0.8,0.4-1.5,0.6-2.2
		c0.2-0.7,0.5-1.4,0.8-2.1c0.3-0.7,0.7-1.4,1-2c0.4-0.7,0.8-1.3,1.2-1.9c0.4-0.6,0.9-1.2,1.4-1.8c0.5-0.6,1-1.1,1.6-1.7
		c0.6-0.5,1.1-1,1.7-1.5c0.6-0.5,1.2-0.9,1.9-1.3s1.3-0.8,2-1.1c0.7-0.3,1.4-0.6,2.1-0.9c0.7-0.3,1.4-0.5,2.2-0.7
		c0.7-0.2,1.5-0.4,2.2-0.5s1.5-0.2,2.3-0.3c0.8-0.1,1.5-0.1,2.3,0c0.8,0,1.5,0.1,2.3,0.2c0.8,0.1,1.5,0.2,2.3,0.4
		c0.7,0.2,1.5,0.4,2.2,0.6c0.7,0.2,1.4,0.5,2.1,0.8c0.7,0.3,1.4,0.7,2,1.1c0.7,0.4,1.3,0.8,1.9,1.2c0.6,0.4,1.2,0.9,1.8,1.4
		c0.6,0.5,1.1,1,1.6,1.6c0.5,0.6,1,1.1,1.5,1.8s0.9,1.2,1.3,1.9s0.8,1.3,1.1,2c0.3,0.7,0.6,1.4,0.9,2.1c0.3,0.7,0.5,1.4,0.7,2.2
		l49.4,184.5c0.2,0.7,0.4,1.5,0.5,2.2c0.1,0.8,0.2,1.5,0.3,2.3c0.1,0.8,0.1,1.5,0,2.3c0,0.8-0.1,1.5-0.2,2.3
		c-0.1,0.8-0.2,1.5-0.4,2.2c-0.2,0.7-0.4,1.5-0.6,2.2c-0.2,0.7-0.5,1.4-0.8,2.1c-0.3,0.7-0.7,1.4-1,2c-0.4,0.7-0.8,1.3-1.2,1.9
		c-0.4,0.6-0.9,1.2-1.4,1.8c-0.5,0.6-1,1.1-1.6,1.6c-0.6,0.5-1.1,1-1.7,1.5c-0.6,0.5-1.2,0.9-1.9,1.3c-0.6,0.4-1.3,0.8-2,1.1
		c-0.7,0.3-1.4,0.6-2.1,0.9C396.4,403.5,395.6,403.8,394.9,404z M206.1,283.2C247.2,266,281.9,244,307,220l42.3,157.8
		c-33.8-8.2-74.8-10-119-4.3L206.1,283.2L206.1,283.2z M444.4,326.4c-0.4-0.1-0.9-0.3-1.3-0.5c-0.4-0.2-0.8-0.4-1.2-0.7
		c-0.4-0.3-0.7-0.6-1-0.9c-0.3-0.3-0.6-0.7-0.8-1.1c-0.2-0.4-0.4-0.8-0.6-1.2c-0.1-0.4-0.2-0.9-0.3-1.3c-0.1-0.5-0.1-0.9,0-1.4
		c0-0.5,0.1-0.9,0.2-1.3c0.1-0.4,0.3-0.9,0.5-1.3c0.2-0.4,0.4-0.8,0.7-1.2c0.3-0.4,0.6-0.7,0.9-1c0.3-0.3,0.7-0.6,1.1-0.8
		c0.4-0.2,0.8-0.4,1.2-0.6c0.4-0.1,0.9-0.2,1.3-0.3c0.5-0.1,0.9-0.1,1.4,0c0.5,0,0.9,0.1,1.3,0.2l34,9.1c0.4,0.1,0.9,0.3,1.3,0.5
		c0.4,0.2,0.8,0.4,1.2,0.7c0.4,0.3,0.7,0.6,1,0.9c0.3,0.3,0.6,0.7,0.8,1.1c0.2,0.4,0.4,0.8,0.6,1.2c0.2,0.4,0.3,0.9,0.3,1.3
		c0.1,0.5,0.1,0.9,0,1.4c0,0.5-0.1,0.9-0.2,1.3c-0.1,0.4-0.3,0.9-0.5,1.3s-0.4,0.8-0.7,1.2c-0.3,0.4-0.6,0.7-0.9,1
		c-0.3,0.3-0.7,0.6-1.1,0.8c-0.4,0.2-0.8,0.4-1.2,0.6c-0.4,0.1-0.9,0.2-1.3,0.3s-0.9,0.1-1.4,0c-0.5,0-0.9-0.1-1.3-0.2L444.4,326.4z
		 M425,226.8l24.9-24.9c0.3-0.3,0.6-0.7,0.9-1.1c0.3-0.4,0.5-0.8,0.6-1.2c0.2-0.4,0.3-0.9,0.4-1.3c0.1-0.4,0.1-0.9,0.1-1.4
		c0-0.5,0-0.9-0.1-1.4c-0.1-0.4-0.2-0.9-0.4-1.3c-0.2-0.4-0.4-0.8-0.6-1.2c-0.3-0.4-0.5-0.7-0.9-1.1c-0.3-0.3-0.7-0.6-1.1-0.9
		c-0.4-0.3-0.8-0.5-1.2-0.6s-0.9-0.3-1.3-0.4c-0.4-0.1-0.9-0.1-1.4-0.1c-0.5,0-0.9,0-1.4,0.1c-0.4,0.1-0.9,0.2-1.3,0.4
		c-0.4,0.2-0.8,0.4-1.2,0.6c-0.4,0.3-0.7,0.5-1.1,0.9l-24.9,24.9c-0.3,0.3-0.6,0.7-0.9,1.1c-0.3,0.4-0.5,0.8-0.6,1.2
		s-0.3,0.9-0.4,1.3c-0.1,0.4-0.1,0.9-0.1,1.4c0,0.5,0,0.9,0.1,1.4c0.1,0.5,0.2,0.9,0.4,1.3c0.2,0.4,0.4,0.8,0.6,1.2
		c0.3,0.4,0.5,0.7,0.9,1.1c0.3,0.3,0.7,0.6,1.1,0.9s0.8,0.5,1.2,0.6c0.4,0.2,0.9,0.3,1.3,0.4c0.5,0.1,0.9,0.1,1.4,0.1
		c0.5,0,0.9,0,1.4-0.1c0.4-0.1,0.9-0.2,1.3-0.4c0.4-0.2,0.8-0.4,1.2-0.6C424.3,227.4,424.6,227.1,425,226.8z M456.3,271.8
		c-0.4,0.1-0.9,0.2-1.4,0.2c-0.5,0-0.9,0-1.4,0c-0.5-0.1-0.9-0.2-1.3-0.3c-0.4-0.1-0.8-0.3-1.2-0.6c-0.4-0.2-0.8-0.5-1.1-0.8
		c-0.3-0.3-0.7-0.6-0.9-1c-0.3-0.4-0.5-0.8-0.7-1.2c-0.2-0.4-0.4-0.8-0.5-1.3c-0.1-0.4-0.2-0.9-0.2-1.3c0-0.5,0-0.9,0-1.4
		c0.1-0.5,0.2-0.9,0.3-1.3c0.2-0.4,0.3-0.8,0.6-1.2c0.2-0.4,0.5-0.8,0.8-1.1c0.3-0.3,0.6-0.7,1-0.9c0.4-0.3,0.8-0.5,1.2-0.7
		s0.8-0.4,1.3-0.5l32.3-8.6c0.4-0.1,0.9-0.2,1.4-0.2c0.5,0,0.9,0,1.4,0c0.5,0.1,0.9,0.2,1.3,0.3c0.4,0.1,0.9,0.3,1.3,0.6
		s0.8,0.5,1.1,0.8c0.3,0.3,0.7,0.6,0.9,1c0.3,0.4,0.5,0.8,0.7,1.2c0.2,0.4,0.4,0.8,0.5,1.3c0.1,0.4,0.2,0.9,0.2,1.4
		c0,0.5,0,0.9,0,1.4c-0.1,0.5-0.2,0.9-0.3,1.3s-0.3,0.9-0.6,1.3c-0.2,0.4-0.5,0.8-0.8,1.1c-0.3,0.3-0.6,0.7-1,0.9
		c-0.4,0.3-0.8,0.5-1.2,0.7c-0.4,0.2-0.8,0.4-1.3,0.5L456.3,271.8z M393.5,254.7l13.3,49.7c1.2-0.8,2.3-1.6,3.4-2.6
		c1.1-0.9,2.1-2,3-3.1c0.9-1.1,1.7-2.3,2.4-3.5c0.7-1.2,1.3-2.5,1.9-3.8s0.9-2.7,1.2-4.1c0.3-1.4,0.5-2.8,0.6-4.2
		c0.1-1.4,0-2.8-0.1-4.3c-0.1-1.4-0.4-2.8-0.8-4.2c-0.4-1.4-0.8-2.7-1.4-4c-0.6-1.3-1.3-2.5-2-3.7c-0.8-1.2-1.7-2.3-2.6-3.4
		c-1-1.1-2-2-3.1-2.9c-1.1-0.9-2.3-1.7-3.5-2.4c-1.2-0.7-2.5-1.3-3.9-1.8c-1.3-0.5-2.7-0.9-4.1-1.2
		C396.3,255,394.9,254.8,393.5,254.7z M74.9,10.1c-0.7,0-1.3,0.1-1.9,0.2c-0.6,0.1-1.3,0.3-1.9,0.6c-0.6,0.3-1.2,0.6-1.7,0.9
		c-0.5,0.4-1,0.8-1.5,1.2c-0.5,0.5-0.9,1-1.2,1.5c-0.4,0.5-0.7,1.1-0.9,1.7c-0.3,0.6-0.4,1.2-0.6,1.9c-0.1,0.6-0.2,1.3-0.2,1.9v44.9
		c0,0.7,0.1,1.3,0.2,1.9s0.3,1.3,0.6,1.9c0.2,0.6,0.6,1.2,0.9,1.7c0.4,0.5,0.8,1,1.2,1.5c0.5,0.5,1,0.9,1.5,1.2
		c0.5,0.4,1.1,0.7,1.7,0.9c0.6,0.2,1.2,0.4,1.9,0.6c0.6,0.1,1.3,0.2,1.9,0.2h16.6c0.7,0,1.3-0.1,1.9-0.2c0.6-0.1,1.3-0.3,1.9-0.6
		c0.6-0.2,1.2-0.6,1.7-0.9c0.5-0.4,1-0.8,1.5-1.2c0.5-0.5,0.9-1,1.2-1.5c0.4-0.5,0.7-1.1,0.9-1.7c0.2-0.6,0.4-1.2,0.6-1.9
		c0.1-0.6,0.2-1.3,0.2-1.9V20.1c0-0.7-0.1-1.3-0.2-1.9c-0.1-0.6-0.3-1.3-0.6-1.9c-0.2-0.6-0.6-1.2-0.9-1.7c-0.4-0.5-0.8-1.1-1.2-1.5
		c-0.5-0.5-1-0.9-1.5-1.2c-0.5-0.4-1.1-0.7-1.7-0.9c-0.6-0.3-1.2-0.4-1.9-0.6c-0.6-0.1-1.3-0.2-1.9-0.2H74.9z M262.7,10.1
		c-0.7,0-1.3,0.1-1.9,0.2s-1.3,0.3-1.9,0.6c-0.6,0.3-1.2,0.6-1.7,0.9c-0.5,0.4-1,0.8-1.5,1.2c-0.5,0.5-0.9,1-1.2,1.5
		c-0.4,0.5-0.7,1.1-0.9,1.7c-0.2,0.6-0.4,1.2-0.6,1.9c-0.1,0.6-0.2,1.3-0.2,1.9v44.9c0,0.7,0.1,1.3,0.2,1.9c0.1,0.6,0.3,1.3,0.6,1.9
		c0.2,0.6,0.6,1.2,0.9,1.7c0.4,0.5,0.8,1,1.2,1.5c0.5,0.5,1,0.9,1.5,1.2c0.5,0.4,1.1,0.7,1.7,0.9c0.6,0.2,1.2,0.4,1.9,0.6
		c0.6,0.1,1.3,0.2,1.9,0.2h16.6c0.7,0,1.3-0.1,1.9-0.2c0.6-0.1,1.3-0.3,1.9-0.6c0.6-0.2,1.2-0.6,1.7-0.9c0.5-0.4,1-0.8,1.5-1.2
		c0.5-0.5,0.9-1,1.2-1.5c0.4-0.5,0.7-1.1,0.9-1.7c0.2-0.6,0.4-1.2,0.6-1.9c0.1-0.6,0.2-1.3,0.2-1.9V20.1c0-0.7-0.1-1.3-0.2-1.9
		c-0.1-0.6-0.3-1.3-0.6-1.9c-0.2-0.6-0.6-1.2-0.9-1.7c-0.4-0.5-0.8-1.1-1.2-1.5c-0.5-0.5-1-0.9-1.5-1.2c-0.5-0.4-1.1-0.7-1.7-0.9
		c-0.6-0.2-1.2-0.4-1.9-0.6s-1.3-0.2-1.9-0.2H262.7z M168.8,10.1c-0.7,0-1.3,0.1-1.9,0.2s-1.3,0.3-1.9,0.6c-0.6,0.3-1.2,0.6-1.7,0.9
		c-0.5,0.4-1,0.8-1.5,1.2c-0.5,0.5-0.9,1-1.2,1.5c-0.4,0.5-0.7,1.1-0.9,1.7c-0.2,0.6-0.4,1.2-0.6,1.9c-0.1,0.6-0.2,1.3-0.2,1.9v44.9
		c0,0.7,0.1,1.3,0.2,1.9c0.1,0.6,0.3,1.3,0.6,1.9c0.2,0.6,0.6,1.2,0.9,1.7c0.4,0.5,0.8,1,1.2,1.5c0.5,0.5,1,0.9,1.5,1.2
		c0.5,0.4,1.1,0.7,1.7,0.9c0.6,0.2,1.2,0.4,1.9,0.6c0.6,0.1,1.3,0.2,1.9,0.2h16.6c0.7,0,1.3-0.1,1.9-0.2c0.6-0.1,1.3-0.3,1.9-0.6
		c0.6-0.2,1.2-0.6,1.7-0.9c0.5-0.4,1.1-0.8,1.5-1.2c0.5-0.5,0.9-1,1.2-1.5c0.4-0.5,0.7-1.1,0.9-1.7c0.2-0.6,0.4-1.2,0.6-1.9
		c0.1-0.6,0.2-1.3,0.2-1.9V20.1c0-0.7-0.1-1.3-0.2-1.9c-0.1-0.6-0.3-1.3-0.6-1.9c-0.3-0.6-0.6-1.2-0.9-1.7c-0.4-0.5-0.8-1.1-1.2-1.5
		c-0.5-0.5-1-0.9-1.5-1.2c-0.5-0.4-1.1-0.7-1.7-0.9c-0.6-0.2-1.2-0.4-1.9-0.6c-0.6-0.1-1.3-0.2-1.9-0.2H168.8z M222.6,392.7
		l30.1,75.9c0.2,0.6,0.4,1.2,0.5,1.8c0.1,0.6,0.2,1.2,0.2,1.8c0,0.6,0,1.2-0.1,1.8c-0.1,0.6-0.3,1.2-0.5,1.8
		c-0.2,0.6-0.5,1.1-0.8,1.7c-0.3,0.5-0.7,1-1.1,1.5c-0.4,0.5-0.8,0.9-1.3,1.3c-0.5,0.4-1,0.7-1.5,1l-14.3,7.3
		c-0.6,0.3-1.2,0.6-1.9,0.8c-0.7,0.2-1.3,0.3-2,0.3c-0.7,0-1.4,0-2-0.1c-0.7-0.1-1.3-0.3-2-0.5c-0.6-0.2-1.3-0.5-1.8-0.9
		c-0.6-0.4-1.1-0.8-1.6-1.3c-0.5-0.5-0.9-1-1.3-1.6c-0.4-0.6-0.7-1.2-1-1.8l-32.3-80.8l30.6-8.2
		C219.9,394.1,221.3,393.5,222.6,392.7L222.6,392.7z M193.8,208.4V243h34.5v-34.5H193.8z M58.1,140.6v34.5h34.5v-34.5H58.1z
		 M58.1,276.3v34.5h34.5v-34.5H58.1z M125.9,208.4V243h34.5v-34.5H125.9z M58.1,208.4V243h34.5v-34.5H58.1z M261.6,140.6v34.5h34.5
		v-34.5H261.6z M193.8,140.6v34.5h34.5v-34.5H193.8z M125.9,140.6v34.5h34.5v-34.5H125.9z M347,113v47.5c-5.8-1.2-11.5-1.1-17.2,0.4
		c-1.1,0.3-2.2,0.7-3.3,1.1c-1.1,0.4-2.2,0.9-3.2,1.4s-2.1,1.1-3.1,1.7s-2,1.3-2.9,2c-0.9,0.7-1.8,1.4-2.7,2.2
		c-0.9,0.8-1.7,1.6-2.5,2.5s-1.5,1.8-2.2,2.7c-0.7,0.9-1.4,1.9-2,2.9c-0.6,1-1.2,2-1.7,3.1c-0.5,1.1-1,2.1-1.4,3.2
		c-0.4,1.1-0.8,2.2-1.1,3.3c-0.3,1.1-0.6,2.3-0.8,3.4c-0.2,1.2-0.4,2.3-0.5,3.5c-0.1,1.2-0.1,2.3-0.1,3.5c0,1.2,0.1,2.3,0.2,3.5
		c0.1,1.2,0.3,2.3,0.5,3.5c-28.5,29.6-68.8,52.3-106.2,67.5c-1.8-0.8-3.7-1.3-5.6-1.5c-2-0.2-3.9,0-5.8,0.5l-40.8,10.9
		c-28.9,7.8-48,34.7-47.3,63.5H35.7c-0.9,0-1.9-0.1-2.8-0.1c-0.9-0.1-1.8-0.2-2.8-0.4c-0.9-0.2-1.8-0.4-2.7-0.7
		c-0.9-0.3-1.8-0.6-2.6-0.9c-0.9-0.4-1.7-0.8-2.5-1.2c-0.8-0.4-1.6-0.9-2.4-1.4c-0.8-0.5-1.5-1.1-2.2-1.7c-0.7-0.6-1.4-1.2-2.1-1.9
		c-0.7-0.7-1.3-1.3-1.9-2.1c-0.6-0.7-1.1-1.5-1.7-2.2c-0.5-0.8-1-1.6-1.4-2.4c-0.4-0.8-0.8-1.7-1.2-2.5c-0.4-0.9-0.7-1.7-0.9-2.6
		c-0.3-0.9-0.5-1.8-0.7-2.7c-0.2-0.9-0.3-1.8-0.4-2.8c-0.1-0.9-0.1-1.9-0.1-2.8V113H347z"/>
</g>
</svg>
