<?xml version="1.0" encoding="utf-8"?>
<!-- Generator: Adobe Illustrator 27.0.0, SVG Export Plug-In . SVG Version: 6.00 Build 0)  -->
<svg version="1.1" id="Layer_1" xmlns="http://www.w3.org/2000/svg" xmlns:xlink="http://www.w3.org/1999/xlink" x="0px" y="0px"
	 viewBox="0 0 500 500" style="enable-background:new 0 0 500 500;" xml:space="preserve">
<style type="text/css">
	.st0{fill:#009688;}
</style>
<g>
	<path class="st0" d="M286.4,488c-1.6,0.4-3.2,0.6-4.8,0.6c-11.9-0.5-20.2-15.5-18.6-33.5c2.1-20.7,4.4-41.4,6.8-62.1
		c0.4-4,1.2-7.9,2.3-11.7c1.1-3.8,2.6-7.5,4.4-11c1.8-3.6,3.9-6.9,6.4-10.1c2.4-3.2,5.1-6.1,8.1-8.7l3.8-3.3
		c10.3-9.2,20.7-18.9,31.2-29.2c12.6-12.4,26.2-24.7,40.6-37.1c8.3-7.1,20.8-8.6,27.7-3.4c6.7,5.1,5,15.1-3,22.3
		c-15.1,13.4-29.2,26.9-42.3,40.4c4.6-2.6,9.2-5.2,13.9-7.9c27.3-15.3,52.2-40.6,62.8-67.7l9.6-24.8c3.9-10.3,18.1-18.6,31.8-18.6
		c13.7,0,21,8.2,16.3,18.5c-5.9,13.3-11.9,26.6-17.8,40c-15.4,34.5-44.8,68.2-75.9,94.6c-6.4,5.4-12.6,10.8-18.5,16.2
		c-8.9,8-16.8,16.7-23.9,26.3c-7.1,9.6-13.1,19.8-18.1,30.6c-9.3,19.4-23.7,34.3-37.6,38.1L286.4,488z M214.5,488l-5.3-1.4
		c-13.9-3.8-28.4-18.7-37.6-38.1c-5-10.8-11.1-21-18.1-30.6c-7.1-9.6-15-18.4-23.9-26.3c-5.9-5.4-12.1-10.8-18.5-16.2
		c-31-26.3-60.5-60.1-75.9-94.5c-5.9-13.3-11.9-26.6-17.8-40c-4.5-10.5,2.7-18.6,16.5-18.6s27.9,8.3,31.8,18.6l9.6,24.8
		c10.7,27.1,35.6,52.4,62.8,67.7c4.7,2.6,9.4,5.2,13.9,7.9c-13.1-13.5-27.2-26.9-42.3-40.4c-8.1-7.2-9.8-17.2-3.1-22.3
		c6.8-5.2,19.4-3.7,27.7,3.4c14.4,12.3,27.9,24.7,40.6,37.1c10.4,10.1,20.8,19.9,31.1,29.1l3.8,3.4c3,2.7,5.6,5.6,8.1,8.7
		c2.4,3.2,4.5,6.5,6.4,10.1c1.8,3.6,3.3,7.2,4.4,11.1c1.1,3.8,1.9,7.7,2.3,11.7c2.4,20.7,4.7,41.4,6.8,62.1c1.6,18-6.8,33-18.6,33.5
		C217.6,488.7,216,488.5,214.5,488z M206.6,137.8H291c20.8,0,39.2,8.9,48.3,21.9l-88.9,38.1l-89-38.2
		C169.4,146.6,186.1,137.8,206.6,137.8z M250.7,126.9c-1.9,0-3.8-0.1-5.7-0.3s-3.8-0.5-5.6-0.9c-1.9-0.4-3.7-0.8-5.5-1.4
		s-3.6-1.2-5.3-1.9c-1.8-0.7-3.5-1.5-5.1-2.4c-1.7-0.9-3.3-1.9-4.9-2.9c-1.6-1.1-3.1-2.2-4.6-3.4c-1.5-1.2-2.9-2.5-4.2-3.8
		s-2.6-2.8-3.8-4.2c-1.2-1.5-2.3-3-3.4-4.6c-1.1-1.6-2-3.2-2.9-4.9c-0.9-1.7-1.7-3.4-2.4-5.2c-0.7-1.8-1.4-3.5-1.9-5.4
		c-0.5-1.8-1-3.7-1.4-5.5c-0.4-1.9-0.6-3.7-0.8-5.6s-0.3-3.8-0.3-5.7c0-1.9,0.1-3.8,0.3-5.7c0.2-1.9,0.5-3.8,0.8-5.6
		c0.4-1.9,0.8-3.7,1.4-5.5c0.6-1.8,1.2-3.6,1.9-5.4c0.7-1.8,1.5-3.5,2.4-5.1c0.9-1.7,1.9-3.3,2.9-4.9c1.1-1.6,2.2-3.1,3.4-4.6
		s2.5-2.9,3.8-4.2s2.8-2.6,4.2-3.8c1.5-1.2,3-2.3,4.6-3.4s3.2-2,4.9-2.9s3.4-1.7,5.2-2.4c1.8-0.7,3.5-1.4,5.4-1.9
		c1.8-0.5,3.7-1,5.5-1.4c1.9-0.4,3.7-0.6,5.6-0.8c1.9-0.2,3.8-0.3,5.7-0.3s3.8,0.1,5.7,0.3c1.9,0.2,3.8,0.5,5.6,0.8
		c1.9,0.4,3.7,0.8,5.5,1.4c1.8,0.6,3.6,1.2,5.4,1.9c1.8,0.7,3.5,1.5,5.1,2.4c1.7,0.9,3.3,1.9,4.9,2.9c1.6,1.1,3.1,2.2,4.6,3.4
		c1.5,1.2,2.9,2.5,4.2,3.8c1.3,1.3,2.6,2.8,3.8,4.2s2.3,3,3.4,4.6s2,3.2,2.9,4.9s1.7,3.4,2.4,5.1c0.7,1.8,1.4,3.5,1.9,5.4
		s1,3.7,1.4,5.5c0.4,1.9,0.7,3.7,0.8,5.6c0.2,1.9,0.3,3.8,0.3,5.7c0,1.9-0.1,3.8-0.3,5.7c-0.2,1.9-0.5,3.8-0.8,5.6
		c-0.4,1.9-0.8,3.7-1.4,5.5s-1.2,3.6-1.9,5.4c-0.7,1.8-1.5,3.5-2.4,5.2s-1.9,3.3-2.9,4.9c-1.1,1.6-2.2,3.1-3.4,4.6
		c-1.2,1.5-2.5,2.9-3.8,4.2s-2.8,2.6-4.2,3.8c-1.5,1.2-3,2.3-4.6,3.4s-3.2,2-4.9,2.9s-3.4,1.7-5.2,2.4c-1.8,0.7-3.6,1.4-5.4,1.9
		s-3.7,1-5.5,1.4c-1.9,0.4-3.8,0.6-5.6,0.8C254.5,126.8,252.6,126.9,250.7,126.9z M250.4,314.8l-99.4-51c-0.8-0.4-1.3-1.1-1.5-1.9
		l-18.4-97.6c-0.1-0.6-0.1-1.2,0.2-1.8c0.2-0.4,0.4-0.7,0.7-1s0.6-0.5,1-0.6s0.8-0.2,1.1-0.2c0.4,0,0.8,0.1,1.1,0.2l115.2,49.4
		l115.2-49.4c0.4-0.2,0.7-0.2,1.1-0.2s0.8,0.1,1.2,0.2c0.4,0.2,0.7,0.4,1,0.6c0.3,0.3,0.5,0.6,0.7,1c0.3,0.6,0.3,1.2,0.2,1.8
		l-18.5,97.6c-0.2,0.9-0.7,1.5-1.5,1.9L250.4,314.8z"/>
</g>
</svg>
