<?xml version="1.0" encoding="utf-8"?>
<!-- Generator: Adobe Illustrator 27.0.0, SVG Export Plug-In . SVG Version: 6.00 Build 0)  -->
<svg version="1.1" id="Layer_1" xmlns="http://www.w3.org/2000/svg" xmlns:xlink="http://www.w3.org/1999/xlink" x="0px" y="0px"
	 viewBox="0 0 500 500" style="enable-background:new 0 0 500 500;" xml:space="preserve">
<style type="text/css">
	.st0{fill:#009688;}
</style>
<g>
	<path class="st0" d="M489.1,111.7l-100,373.1c-0.2,0.5-0.3,1-0.6,1.5c-0.2,0.5-0.5,0.9-0.9,1.4c-0.3,0.4-0.7,0.8-1.1,1.2
		c-0.4,0.4-0.9,0.7-1.3,0.9c-0.5,0.3-1,0.5-1.5,0.7c-0.5,0.2-1.1,0.3-1.6,0.4c-0.5,0.1-1.1,0.1-1.6,0.1c-0.5,0-1.1-0.1-1.6-0.3
		l-191.2-51.2h156.4c2.9,0,5.8-0.5,8.5-1.5c2.8-1,5.3-2.5,7.5-4.4l15.5,4.2l4.4-16.3l-11.2-2.9c0.3-1.4,0.4-2.8,0.4-4.2v-21.8
		l17.2,4.7l4.4-16.3l-21.6-5.8v-26.1l28.1,7.6l4.4-16.3l-32.5-8.7v-26l39,10.5l4.4-16.3l-43.3-11.6V262l49.9,13.4l4.4-16.3
		l-54.2-14.5v-26l60.7,16.3l4.4-16.3l-65.1-17.4v-26.1l71.6,19.2l4.4-16.3l-76-20.3v-26.1l82.5,22.2l4.4-16.3l-86.8-23.3V70.9
		l113.9,30.5c0.5,0.1,1.1,0.3,1.6,0.6c0.5,0.2,1,0.5,1.4,0.9c0.4,0.3,0.8,0.7,1.2,1.1c0.4,0.4,0.7,0.9,1,1.3c0.3,0.5,0.5,1,0.7,1.5
		c0.2,0.5,0.3,1.1,0.4,1.6c0.1,0.5,0.1,1.1,0.1,1.7C489.3,110.6,489.2,111.1,489.1,111.7z M344.1,422.7H25c-0.6,0-1.1-0.1-1.6-0.2
		c-0.5-0.1-1.1-0.3-1.6-0.5c-0.5-0.2-1-0.5-1.4-0.8c-0.5-0.3-0.9-0.7-1.3-1s-0.7-0.8-1-1.3c-0.3-0.5-0.6-0.9-0.8-1.5
		c-0.2-0.5-0.4-1-0.5-1.6c-0.1-0.5-0.2-1.1-0.2-1.6V86.8H67c0.8,0,1.6,0,2.5-0.1c0.8-0.1,1.6-0.2,2.4-0.4c0.8-0.2,1.6-0.4,2.4-0.6
		c0.8-0.2,1.6-0.5,2.3-0.8c0.8-0.3,1.5-0.7,2.2-1.1c0.7-0.4,1.4-0.8,2.1-1.3c0.7-0.5,1.3-0.9,2-1.5c0.6-0.5,1.2-1.1,1.8-1.7
		c0.6-0.6,1.1-1.2,1.7-1.8c0.5-0.6,1-1.3,1.5-2c0.5-0.7,0.9-1.4,1.3-2.1c0.4-0.7,0.7-1.5,1.1-2.2c0.3-0.8,0.6-1.5,0.8-2.3
		c0.2-0.8,0.4-1.6,0.6-2.4c0.2-0.8,0.3-1.6,0.4-2.4c0.1-0.8,0.1-1.6,0.1-2.5v-42h251.9c0.5,0,1.1,0.1,1.6,0.2
		c0.5,0.1,1.1,0.3,1.6,0.5c0.5,0.2,1,0.5,1.4,0.8c0.5,0.3,0.9,0.7,1.3,1c0.4,0.4,0.7,0.8,1,1.3c0.3,0.5,0.6,0.9,0.8,1.5
		c0.2,0.5,0.4,1,0.5,1.6c0.1,0.5,0.2,1.1,0.2,1.6v386.2c0,0.6-0.1,1.1-0.2,1.6c-0.1,0.5-0.3,1.1-0.5,1.6c-0.2,0.5-0.5,1-0.8,1.5
		c-0.3,0.5-0.7,0.9-1,1.3c-0.4,0.4-0.8,0.7-1.3,1c-0.5,0.3-0.9,0.6-1.4,0.8c-0.5,0.2-1,0.4-1.6,0.5
		C345.2,422.6,344.6,422.7,344.1,422.7z M41.8,120.4h75.6v-16.8H41.8V120.4z M41.8,162.4H67v-16.8H41.8V162.4z M41.8,246.3h117.6
		v-16.8H41.8V246.3z M41.8,330.3h167.9v-16.8H41.8V330.3z M327.3,355.5H151v16.8h176.3V355.5z M327.3,313.5h-92.4v16.8h92.4V313.5z
		 M327.3,271.5H41.8v16.8h285.5V271.5z M327.3,229.6H184.6v16.8h142.7V229.6z M327.3,187.6H41.8v16.8h285.5V187.6z M327.3,145.6
		H83.8v16.8h243.5V145.6z M167.8,120.4v-16.8h-33.6v16.8H167.8z M327.3,103.6H184.6v16.8h142.7V103.6z M327.3,61.6H117.4v16.8h209.9
		V61.6z M75.4,61.6V30L30.3,70H67c0.6,0,1.1-0.1,1.6-0.2c0.5-0.1,1.1-0.3,1.6-0.5c0.5-0.2,1-0.5,1.4-0.8c0.5-0.3,0.9-0.7,1.3-1
		s0.7-0.8,1-1.3c0.3-0.5,0.6-0.9,0.8-1.5c0.2-0.5,0.4-1,0.5-1.6S75.4,62.2,75.4,61.6z"/>
</g>
</svg>
