<?xml version="1.0" encoding="utf-8"?>
<!-- Generator: Adobe Illustrator 27.0.0, SVG Export Plug-In . SVG Version: 6.00 Build 0)  -->
<svg version="1.1" id="Layer_1" xmlns="http://www.w3.org/2000/svg" xmlns:xlink="http://www.w3.org/1999/xlink" x="0px" y="0px"
	 viewBox="0 0 500 500" style="enable-background:new 0 0 500 500;" xml:space="preserve">
<style type="text/css">
	.st0{enable-background:new    ;}
	.st1{fill:#008D7F;}
</style>
<g class="st0">
	<path class="st1" d="M304.2,483.6c-26.7,0-53.4-0.1-80,0c-14.7,0.1-27.4-4.8-38.6-14c-8.5-7-16.9-14-25.3-21.1
		c-1.4-1.2-2.9-1.7-4.7-1.7c-29.4,0.1-58.8,0.1-88.2,0.1c-8.1,0-12.4-4.3-12.4-12.3c0-46.9,0-93.8,0-140.7c0-7.9,4.3-12.3,12.2-12.3
		c21.6,0,43.2,0,64.7,0.1c9.8,0,18-3.5,24.4-11c1.7-2,3-4.3,4.3-6.6c11.2-20.5,22.3-40.9,33.4-61.5c0.8-1.5,1.3-3.4,1.3-5.2
		c0.1-19.2,0-38.4,0-57.6c0-6.2,3.7-10.5,9.6-11.1c1.7-0.2,3.5,0.2,5.2,0.6c23.9,6.6,39.3,24.5,42.4,49.6c0.6,5.1,0.9,10.3,1,15.5
		c0.1,17.8,0,35.5,0,53.3c0,5.1,2.3,8.7,6.8,10.9c1.2,0.6,2.7,1,4.1,1c50.3,0,100.7-0.1,151-0.1c13.9,0,25.1,8.2,28.9,21
		c0.5,1.6,0.5,3.7,0,5.3c-3.7,12.7-14.9,21-28.3,21.1c-15,0.1-30.1,0-45.2-0.1c-2.3,0-3.2,0.7-3,3c0.2,2,0.1,4,0,6
		c-0.1,2.2,0.8,2.9,2.9,2.9c12.3-0.1,24.5-0.1,36.8,0c12.3,0.1,22.6,7.6,26.9,19.1c1.2,3.1,1.2,5.9,0,9
		c-4.4,11.7-15.1,19.1-27.6,19.1c-11.9,0-23.9,0-35.8-0.1c-2.4,0-3.3,0.7-3.1,3.1c0.2,2,0.1,4,0,6c-0.1,2.1,0.8,2.7,2.8,2.7
		c10.2-0.1,20.4,0,30.6-0.1c13.3-0.1,24.9,8.6,28.4,21.4c0.4,1.4,0.4,3.2,0,4.6c-3.4,12.8-14.6,21.2-28.3,21.3
		c-10,0.1-20.1,0-30.1,0c-3.2,0-3.2,0-3.2,3.2c0,2.1,0.1,4.1,0,6.2c0,1.6,0.6,2.2,2.3,2.2c5.3-0.1,10.7-0.1,16,0
		c13.9,0.2,25.2,8.6,28.7,21.6c0.4,1.3,0.4,2.9,0,4.2c-3.3,13-15.8,21.8-28.1,21.7C359.4,483.5,331.8,483.6,304.2,483.6
		C304.2,483.6,304.2,483.6,304.2,483.6z"/>
	<path class="st1" d="M141.3,59.9c-0.5,2.4-1.1,5.6-1.8,8.8c-1,4.9-2,9.8-3.1,14.7c-0.4,1.5,0,2.5,1.2,3.5
		c5.8,4.7,11.6,9.5,17.4,14.2c2.6,2.1,3.9,4.6,3,7.9c-0.9,3.4-3.3,5-6.8,5.4c-7.5,0.8-15,1.7-22.5,2.5c-1.6,0.2-2.3,0.8-2.9,2.2
		c-2.6,6.9-5.4,13.8-8,20.7c-1.2,3.2-3.2,5.3-6.7,5.5c-3.3,0.2-5.7-1.4-7.3-5c-3.1-6.7-6.1-13.5-9.1-20.2c-0.7-1.5-1.6-2.1-3.2-2.2
		c-7.6-0.3-15.1-0.8-22.6-1.2c-3.3-0.2-5.7-1.6-6.9-4.7c-1.2-3.2-0.3-5.9,2.2-8.2c5.5-5,11-10.1,16.6-15.1c1.4-1.2,1.8-2.3,1.3-4.1
		c-2-7-3.7-14.1-5.7-21.2c-0.9-3.4-0.6-6.4,2.4-8.6c2.9-2.2,5.9-1.8,8.9,0c6.3,3.7,12.8,7.2,19.1,10.9c1.5,0.9,2.6,0.9,4.1-0.1
		c6.3-4.2,12.7-8.2,19.1-12.3c2.5-1.6,5.1-1.9,7.7-0.5C139.9,54.2,141.2,56.3,141.3,59.9z"/>
	<path class="st1" d="M436.7,177.8c-5.2-1-11.4-1.6-17.3-3.4c-6-1.8-9.8-0.5-13.1,4.9c-2.8,4.7-6.7,8.7-10.1,13
		c-2.1,2.8-4.8,3.9-8.2,3c-3.3-0.9-4.8-3.5-5.2-6.7c-0.9-7.3-2-14.7-2.8-22c-0.2-1.8-0.9-2.7-2.6-3.2c-7-2.5-13.9-5.1-20.8-7.6
		c-3.2-1.2-5.3-3.2-5.5-6.7c-0.2-3.6,1.8-5.8,4.9-7.2c6.6-3.1,13.2-6.3,19.9-9.3c1.7-0.8,2.4-1.7,2.4-3.6c0.2-6.8,0.5-13.5,0.7-20.3
		c0-1,0-1.9,0.1-2.9c0.3-3,1.8-5.2,4.8-6.3c3-1.1,5.7-0.3,7.8,2c5.1,5.3,10.1,10.6,15.1,16c1.6,1.8,3.1,2.2,5.4,1.5
		c6.9-2.1,13.9-4,20.9-6c3.3-1,6.2-0.3,8.3,2.5c2.1,2.7,1.8,5.6,0.2,8.5c-3.6,6.5-7.2,13.1-10.9,19.6c-0.8,1.5-0.7,2.5,0.2,3.9
		c4.3,6.3,8.6,12.7,12.8,19c1.6,2.4,2,5,0.5,7.7C442.7,176.6,440.6,177.9,436.7,177.8z"/>
	<path class="st1" d="M327.1,64.9c0,4.3-1.6,6.6-5,7.9c-6.9,2.6-13.8,5.3-20.8,7.8c-2.3,0.8-3,2-3.3,4.3c-0.8,7.1-1.7,14.2-2.6,21.3
		c-0.8,5.9-6,8.9-10.7,6.1c-1.1-0.7-2.1-1.8-2.9-2.8c-4.6-5.6-9.1-11.3-13.5-17c-1.1-1.4-2.1-1.8-3.9-1.4
		c-7.4,1.5-14.8,2.9-22.3,4.3c-3.2,0.6-5.9-0.2-7.7-3c-1.8-2.7-1.6-5.6,0.2-8.3c4.2-6.4,8.4-12.8,12.7-19.1c0.9-1.3,0.9-2.3,0.1-3.7
		c-3.7-6.4-7.2-12.9-10.9-19.4c-1.7-3-2.1-6.1,0.1-8.9c2.2-2.9,5.3-3.2,8.6-2.2c6.9,2,13.8,3.8,20.7,5.8c2,0.6,3.3,0.3,4.8-1.3
		c4.8-5.3,9.7-10.5,14.6-15.8c2.4-2.6,5.1-3.9,8.5-2.7c3.6,1.3,4.7,4.1,4.9,7.7c0.2,7.1,0.7,14.2,0.9,21.2c0.1,2.1,0.7,3.3,2.7,4.2
		c6.8,3,13.4,6.2,20.1,9.3C325.4,60.6,327,62.7,327.1,64.9z"/>
</g>
</svg>
