<?xml version="1.0" encoding="utf-8"?>
<!-- Generator: Adobe Illustrator 27.0.0, SVG Export Plug-In . SVG Version: 6.00 Build 0)  -->
<svg version="1.1" id="Layer_1" xmlns="http://www.w3.org/2000/svg" xmlns:xlink="http://www.w3.org/1999/xlink" x="0px" y="0px"
	 viewBox="0 0 500 500" style="enable-background:new 0 0 500 500;" xml:space="preserve">
<style type="text/css">
	.st0{clip-path:url(#SVGID_00000111171620091528736840000011710354695049316504_);}
	.st1{fill-rule:evenodd;clip-rule:evenodd;fill:#009688;}
	.st2{fill-rule:evenodd;clip-rule:evenodd;fill:#FFFFFE;}
</style>
<g>
	<defs>
		<rect id="SVGID_1_" x="11.4" y="10.4" width="479" height="479"/>
	</defs>
	<clipPath id="SVGID_00000111162471420396979330000001290712380720532618_">
		<use xlink:href="#SVGID_1_"  style="overflow:visible;"/>
	</clipPath>
	<g style="clip-path:url(#SVGID_00000111162471420396979330000001290712380720532618_);">
		<path class="st1" d="M251,489.4c131.9,0,239.5-107.6,239.5-239.5C490.5,118,382.9,10.4,251,10.4C119,10.4,11.4,118,11.4,249.9
			C11.4,381.8,119,489.4,251,489.4"/>
	</g>
</g>
<path class="st2" d="M303.7,118.9h55.5v262h-55.5v-13.4c0-4.8-1.9-9.1-5.1-12.2s-7.5-5.1-12.2-5.1h-70.8c-4.8,0-9.1,1.9-12.2,5.1
	c-3.1,3.1-5.1,7.5-5.1,12.2v13.4h-55.5v-262h55.5v13.4c0,4.8,1.9,9.1,5.1,12.2c3.1,3.1,7.5,5.1,12.2,5.1h70.8
	c4.8,0,9.1-1.9,12.2-5.1s5.1-7.5,5.1-12.2V118.9z M165.1,136.9c-1.6,0-3.1,0.6-4.2,1.6c-0.1,0.1-0.1,0.1-0.2,0.2l0,0l0,0
	c-1.1,1.1-1.8,2.7-1.8,4.4v13.9c0,1.6,0.6,3.1,1.6,4.2c0.1,0.1,0.1,0.1,0.2,0.2l0,0v0c1.1,1.1,2.7,1.8,4.4,1.8h10.5
	c1.6,0,3.1-0.6,4.2-1.6c0.1-0.1,0.1-0.1,0.2-0.2l0,0l0,0c1.1-1.1,1.8-2.7,1.8-4.4v-13.9c0-1.6-0.6-3.1-1.6-4.2
	c-0.1-0.1-0.1-0.1-0.2-0.2l0,0v0c-1.1-1.1-2.7-1.8-4.4-1.8H165.1z M165.1,170.2c-1.6,0-3.1,0.6-4.2,1.6c-0.1,0.1-0.1,0.1-0.2,0.2
	l0,0l0,0c-1.1,1.1-1.8,2.7-1.8,4.4v13.9c0,1.6,0.6,3.1,1.6,4.2c0.1,0.1,0.1,0.1,0.2,0.2l0,0v0c1.1,1.1,2.7,1.8,4.4,1.8h10.5
	c1.6,0,3.1-0.6,4.2-1.6c0.1-0.1,0.1-0.1,0.2-0.2l0,0l0,0c1.1-1.1,1.8-2.7,1.8-4.4v-13.9c0-1.6-0.6-3.1-1.6-4.2
	c-0.1-0.1-0.1-0.1-0.2-0.2l0,0v0c-1.1-1.1-2.7-1.8-4.4-1.8H165.1z M165.1,203.4c-1.7,0-3.3,0.7-4.4,1.8c-1.1,1.1-1.8,2.7-1.8,4.4
	v13.9c0,1.6,0.6,3.1,1.6,4.2c0.1,0.1,0.1,0.1,0.2,0.2l0,0v0c1.1,1.1,2.7,1.8,4.4,1.8h10.5c1.7,0,3.3-0.7,4.4-1.8
	c1.1-1.1,1.8-2.7,1.8-4.4v-13.9c0-1.6-0.6-3.1-1.6-4.2c-0.1-0.1-0.1-0.1-0.2-0.2l-1.9,1.9l1.9-1.9c-1.1-1.1-2.7-1.8-4.4-1.8H165.1z
	 M165.1,236.7c-1.7,0-3.3,0.7-4.4,1.8c-1.1,1.1-1.8,2.7-1.8,4.4v13.9c0,1.7,0.7,3.3,1.8,4.4c1.1,1.1,2.7,1.8,4.4,1.8h10.5
	c1.6,0,3.1-0.6,4.2-1.6c0.1-0.1,0.1-0.1,0.2-0.2l-1.9-1.9l1.9,1.9c1.1-1.1,1.8-2.7,1.8-4.4v-13.9c0-1.6-0.6-3.1-1.6-4.2
	c-0.1-0.1-0.1-0.1-0.2-0.2l-1.9,1.9l1.9-1.9c-1.1-1.1-2.7-1.8-4.4-1.8H165.1z M165.1,269.9c-1.6,0-3.1,0.6-4.2,1.6
	c-0.1,0.1-0.1,0.1-0.2,0.2h0v0l0,0c-1.1,1.1-1.8,2.7-1.8,4.4v13.9c0,1.7,0.7,3.3,1.8,4.4c1.1,1.1,2.7,1.8,4.4,1.8h10.5
	c1.6,0,3.1-0.6,4.2-1.6c0.1-0.1,0.1-0.1,0.2-0.2l-1.9-1.9l1.9,1.9c1.1-1.1,1.8-2.7,1.8-4.4v-13.9c0-1.7-0.7-3.3-1.8-4.4
	c-1.1-1.1-2.7-1.8-4.4-1.8H165.1z M165.1,303.2c-1.6,0-3.1,0.6-4.2,1.6c-0.1,0.1-0.1,0.1-0.2,0.2h0l0,0c-1.1,1.1-1.8,2.7-1.8,4.4
	v13.9c0,1.6,0.6,3.1,1.6,4.2c0.1,0.1,0.1,0.1,0.2,0.2l0,0v0c1.1,1.1,2.7,1.8,4.4,1.8h10.5c1.6,0,3.1-0.6,4.2-1.6
	c0.1-0.1,0.1-0.1,0.2-0.2l0,0l0,0c1.1-1.1,1.8-2.7,1.8-4.4v-13.9c0-1.6-0.6-3.1-1.6-4.2c-0.1-0.1-0.1-0.1-0.2-0.2h0
	c-1.1-1.1-2.7-1.8-4.4-1.8H165.1z M165.1,336.4c-1.6,0-3.1,0.6-4.2,1.6c-0.1,0.1-0.1,0.1-0.2,0.2l0,0l0,0c-1.1,1.1-1.8,2.7-1.8,4.4
	v13.9c0,1.6,0.6,3.1,1.6,4.2c0.1,0.1,0.1,0.1,0.2,0.2l0,0v0c1.1,1.1,2.7,1.8,4.4,1.8h10.5c1.6,0,3.1-0.6,4.2-1.6
	c0.1-0.1,0.1-0.1,0.2-0.2l0,0h0c1.1-1.1,1.8-2.7,1.8-4.4v-13.9c0-1.6-0.6-3.1-1.6-4.2c-0.1-0.1-0.1-0.1-0.2-0.2l0,0v0
	c-1.1-1.1-2.7-1.8-4.4-1.8H165.1z M324.2,136.9c-1.6,0-3.1,0.6-4.2,1.6c-0.1,0.1-0.1,0.1-0.2,0.2l0,0l0,0c-1.1,1.1-1.8,2.7-1.8,4.4
	v13.9c0,1.6,0.6,3.1,1.6,4.2c0.1,0.1,0.1,0.1,0.2,0.2l0,0v0c1.1,1.1,2.7,1.8,4.4,1.8h10.5c1.6,0,3.1-0.6,4.2-1.6
	c0.1-0.1,0.1-0.1,0.2-0.2l0,0l0,0c1.1-1.1,1.8-2.7,1.8-4.4v-13.9c0-1.6-0.6-3.1-1.6-4.2c-0.1-0.1-0.1-0.1-0.2-0.2l0,0l0,0
	c-1.1-1.1-2.7-1.8-4.4-1.8H324.2z M324.2,170.2c-1.6,0-3.1,0.6-4.2,1.6c-0.1,0.1-0.1,0.1-0.2,0.2l0,0l0,0c-1.1,1.1-1.8,2.7-1.8,4.4
	v13.9c0,1.6,0.6,3.1,1.6,4.2c0.1,0.1,0.1,0.1,0.2,0.2l0,0v0c1.1,1.1,2.7,1.8,4.4,1.8h10.5c1.6,0,3.1-0.6,4.2-1.6
	c0.1-0.1,0.1-0.1,0.2-0.2l0,0l0,0c1.1-1.1,1.8-2.7,1.8-4.4v-13.9c0-1.6-0.6-3.1-1.6-4.2c-0.1-0.1-0.1-0.1-0.2-0.2l0,0l0,0
	c-1.1-1.1-2.7-1.8-4.4-1.8H324.2z M324.2,203.4c-1.7,0-3.3,0.7-4.4,1.8c-1.1,1.1-1.8,2.7-1.8,4.4v13.9c0,1.6,0.6,3.1,1.6,4.2
	c0.1,0.1,0.1,0.1,0.2,0.2l0,0v0c1.1,1.1,2.7,1.8,4.4,1.8h10.5c1.7,0,3.3-0.7,4.4-1.8c1.1-1.1,1.8-2.7,1.8-4.4v-13.9
	c0-1.6-0.6-3.1-1.6-4.2c-0.1-0.1-0.1-0.1-0.2-0.2l-1.9,1.9l1.9-1.9c-1.1-1.1-2.7-1.8-4.4-1.8H324.2z M324.2,236.7
	c-1.7,0-3.3,0.7-4.4,1.8s-1.8,2.7-1.8,4.4v13.9c0,1.7,0.7,3.3,1.8,4.4c1.1,1.1,2.7,1.8,4.4,1.8h10.5c1.6,0,3.1-0.6,4.2-1.6
	c0.1-0.1,0.1-0.1,0.2-0.2l-1.9-1.9l1.9,1.9c1.1-1.1,1.8-2.7,1.8-4.4v-13.9c0-1.6-0.6-3.1-1.6-4.2c-0.1-0.1-0.1-0.1-0.2-0.2l-1.9,1.9
	l1.9-1.9c-1.1-1.1-2.7-1.8-4.4-1.8H324.2z M324.2,269.9c-1.6,0-3.1,0.6-4.2,1.6c-0.1,0.1-0.1,0.1-0.2,0.2h0v0l0,0
	c-1.1,1.1-1.8,2.7-1.8,4.4v13.9c0,1.7,0.7,3.3,1.8,4.4c1.1,1.1,2.7,1.8,4.4,1.8h10.5c1.6,0,3.1-0.6,4.2-1.6c0.1-0.1,0.1-0.1,0.2-0.2
	l-1.9-1.9l1.9,1.9c1.1-1.1,1.8-2.7,1.8-4.4v-13.9c0-1.7-0.7-3.3-1.8-4.4c-1.1-1.1-2.7-1.8-4.4-1.8H324.2z M324.2,303.2
	c-1.6,0-3.1,0.6-4.2,1.6c-0.1,0.1-0.1,0.1-0.2,0.2h0l0,0c-1.1,1.1-1.8,2.7-1.8,4.4v13.9c0,1.6,0.6,3.1,1.6,4.2
	c0.1,0.1,0.1,0.1,0.2,0.2l0,0v0c1.1,1.1,2.7,1.8,4.4,1.8h10.5c1.6,0,3.1-0.6,4.2-1.6c0.1-0.1,0.1-0.1,0.2-0.2l0,0l0,0
	c1.1-1.1,1.8-2.7,1.8-4.4v-13.9c0-1.6-0.6-3.1-1.6-4.2c-0.1-0.1-0.1-0.1-0.2-0.2h0c-1.1-1.1-2.7-1.8-4.4-1.8H324.2z M324.2,336.4
	c-1.6,0-3.1,0.6-4.2,1.6c-0.1,0.1-0.1,0.1-0.2,0.2l0,0l0,0c-1.1,1.1-1.8,2.7-1.8,4.4v13.9c0,1.6,0.6,3.1,1.6,4.2
	c0.1,0.1,0.1,0.1,0.2,0.2l0,0v0c1.1,1.1,2.7,1.8,4.4,1.8h10.5c1.6,0,3.1-0.6,4.2-1.6c0.1-0.1,0.1-0.1,0.2-0.2l0,0h0
	c1.1-1.1,1.8-2.7,1.8-4.4v-13.9c0-1.6-0.6-3.1-1.6-4.2c-0.1-0.1-0.1-0.1-0.2-0.2l0,0l0,0c-1.1-1.1-2.7-1.8-4.4-1.8H324.2z
	 M286.3,180.5h-70.8c-4.8,0-9.1,1.9-12.2,5.1c-3.1,3.1-5.1,7.5-5.1,12.2v104.1c0,4.8,1.9,9.1,5.1,12.2c3.1,3.1,7.5,5.1,12.2,5.1
	h70.8c4.8,0,9.1-1.9,12.2-5.1c3.1-3.1,5.1-7.5,5.1-12.2V197.8c0-4.8-1.9-9.1-5.1-12.2S291.1,180.5,286.3,180.5"/>
</svg>
