<svg xmlns="http://www.w3.org/2000/svg" version="1.1" xmlns:xlink="http://www.w3.org/1999/xlink" width="512" height="512" x="0" y="0" viewBox="0 0 34 34" style="enable-background:new 0 0 512 512" xml:space="preserve" class=""><g><path d="M27.5 1h-21C3.46 1 1 3.47 1 6.5v21C1 30.53 3.46 33 6.5 33h21c3.03 0 5.5-2.47 5.5-5.5v-21C33 3.47 30.53 1 27.5 1zM13 4h1.5c.82 0 1.5.67 1.5 1.5S15.32 7 14.5 7H13c-.83 0-1.5-.67-1.5-1.5S12.17 4 13 4zm8.58 12.19c.26.19.42.49.42.81 0 .33-.16.63-.42.82l-7 5c-.18.12-.38.18-.58.18a.92.92 0 0 1-.46-.11A.997.997 0 0 1 13 22V12c0-.37.21-.71.54-.88s.73-.15 1.04.07zM8 30H6.5c-.83 0-1.5-.67-1.5-1.5S5.67 27 6.5 27H8c.82 0 1.5.67 1.5 1.5S8.82 30 8 30zM8 7H6.5C5.67 7 5 6.33 5 5.5S5.67 4 6.5 4H8c.82 0 1.5.67 1.5 1.5S8.82 7 8 7zm6.5 23H13c-.83 0-1.5-.67-1.5-1.5S12.17 27 13 27h1.5c.82 0 1.5.67 1.5 1.5s-.68 1.5-1.5 1.5zm6.5 0h-1.5c-.83 0-1.5-.67-1.5-1.5s.67-1.5 1.5-1.5H21c.82 0 1.5.67 1.5 1.5S21.82 30 21 30zm0-23h-1.5c-.83 0-1.5-.67-1.5-1.5S18.67 4 19.5 4H21c.82 0 1.5.67 1.5 1.5S21.82 7 21 7zm6.5 23H26c-.83 0-1.5-.67-1.5-1.5S25.17 27 26 27h1.5c.82 0 1.5.67 1.5 1.5s-.68 1.5-1.5 1.5zm0-23H26c-.83 0-1.5-.67-1.5-1.5S25.17 4 26 4h1.5c.82 0 1.5.67 1.5 1.5S28.32 7 27.5 7z" fill="#ff7d97" opacity="1" data-original="#000000" class=""></path></g></svg>